<?xml version="1.0" encoding="UTF-8"?>
<svg width="2525px" height="574px" viewBox="0 0 2525 574" version="1.1" xmlns="http://www.w3.org/2000/svg" xmlns:xlink="http://www.w3.org/1999/xlink">
    <title>Group 2</title>
    <defs>
        <path d="M89.2,504 L98.2,483 L151.9,483 L160.9,504 L177.7,504 L133.45,400.95 L116.65,400.95 L72.4,504 L89.2,504 Z M146.05,469.35 L104.05,469.35 L125.05,420.45 L146.05,469.35 Z M207.1,504 L207.1,399.15 L192.4,399.15 L192.4,504 L207.1,504 Z M257.5,505.8 C268,505.8 277.45,500.4 282.1,492.75 L282.1,504 L296.95,504 L296.95,426.45 L282.1,426.45 L282.1,476.7 C280.9,485.85 271.6,492.9 260.8,492.9 C250.3,492.9 242.95,484.8 242.95,473.25 L242.95,426.45 L228.4,426.45 L228.4,475.8 C228.4,493.35 240.4,505.8 257.5,505.8 Z M333.25,504 L333.25,455.55 C333.25,444.9 341.05,437.55 352.15,437.55 C361.9,437.55 368.65,445.5 368.65,456.9 L368.65,504 L383.2,504 L383.2,455.55 C383.2,444.9 391,437.55 402.1,437.55 C411.85,437.55 418.6,445.5 418.6,456.9 L418.6,504 L433.15,504 L433.15,454.65 C433.15,437.1 421.45,424.65 405.25,424.65 C393.55,424.65 383.65,430.65 380.05,440.25 C375.55,430.65 366.4,424.65 355.15,424.65 C345.25,424.65 337.15,429.6 333.25,437.25 L333.25,426.45 L318.4,426.45 L318.4,504 L333.25,504 Z M461.8,413.55 C466.6,413.55 470.65,409.35 470.65,404.55 C470.65,399.9 466.6,395.7 461.8,395.7 C456.7,395.7 452.8,399.9 452.8,404.55 C452.8,409.35 456.7,413.55 461.8,413.55 Z M469.15,504 L469.15,426.45 L454.3,426.45 L454.3,504 L469.15,504 Z M505.45,504 L505.45,453.75 C506.65,444.6 515.95,437.55 526.75,437.55 C537.25,437.55 544.6,445.65 544.6,457.2 L544.6,504 L559.15,504 L559.15,454.65 C559.15,437.1 547.15,424.65 530.05,424.65 C519.55,424.65 510.1,430.05 505.45,437.7 L505.45,426.45 L490.6,426.45 L490.6,504 L505.45,504 Z M609.25,505.8 C619.75,505.8 629.2,500.4 633.85,492.75 L633.85,504 L648.7,504 L648.7,426.45 L633.85,426.45 L633.85,476.7 C632.65,485.85 623.35,492.9 612.55,492.9 C602.05,492.9 594.7,484.8 594.7,473.25 L594.7,426.45 L580.15,426.45 L580.15,475.8 C580.15,493.35 592.15,505.8 609.25,505.8 Z M685,504 L685,455.55 C685,444.9 692.8,437.55 703.9,437.55 C713.65,437.55 720.4,445.5 720.4,456.9 L720.4,504 L734.95,504 L734.95,455.55 C734.95,444.9 742.75,437.55 753.85,437.55 C763.6,437.55 770.35,445.5 770.35,456.9 L770.35,504 L784.9,504 L784.9,454.65 C784.9,437.1 773.2,424.65 757,424.65 C745.3,424.65 735.4,430.65 731.8,440.25 C727.3,430.65 718.15,424.65 706.9,424.65 C697,424.65 688.9,429.6 685,437.25 L685,426.45 L670.15,426.45 L670.15,504 L685,504 Z" id="path-1"></path>
        <path d="M128.2,327 L140.2,297 L221.8,297 L233.8,327 L291.4,327 L209.8,120.9 L152.2,120.9 L70.6,327 L128.2,327 Z M205.9,256.8 L156.1,256.8 L181,193.5 L205.9,256.8 Z M362.2,327 L362.2,117.3 L311.2,117.3 L311.2,327 L362.2,327 Z" id="path-2"></path>
        <path d="M1277.175,347.8 C1299.225,347.8 1317.825,329.2 1317.825,307.15 C1317.825,285.1 1299.225,266.65 1277.175,266.65 C1254.975,266.65 1236.225,285.1 1236.225,307.15 C1236.225,329.2 1254.975,347.8 1277.175,347.8 Z M1277.175,334.9 C1262.925,334.9 1251.075,322.3 1251.075,307.15 C1251.075,292.15 1262.925,279.55 1277.175,279.55 C1291.125,279.55 1302.975,292.15 1302.975,307.15 C1302.975,322.3 1291.125,334.9 1277.175,334.9 Z M1350.825,346 L1350.825,301.9 C1352.175,288.4 1363.575,279.55 1379.625,279.55 L1379.625,266.65 C1366.275,266.65 1355.775,273.1 1350.825,283.3 L1350.825,268.45 L1335.975,268.45 L1335.975,346 L1350.825,346 Z" id="path-3"></path>
    </defs>
    <g id="Marketing" stroke="none" stroke-width="1" fill="none" fill-rule="evenodd">
        <g id="Group-2">
            <polygon id="Path-3" fill="#EBEBEB" points="0 0 0 574 2376 574"></polygon>
            <polygon id="Path-3" fill="#A19D9D" transform="translate(1337.000000, 287.000000) scale(-1, -1) translate(-1337.000000, -287.000000) " points="149 0 149 574 2525 574"></polygon>
            <rect id="Rectangle" fill="#1B87B0" x="1157" y="209" width="300" height="190" rx="95"></rect>
            <g id="Aluminum" fill-rule="nonzero">
                <use fill="#FFFFFF" xlink:href="#path-1"></use>
                <use fill="#11495F" xlink:href="#path-1"></use>
            </g>
            <g id="Al" fill-rule="nonzero">
                <use fill="#FFFFFF" xlink:href="#path-2"></use>
                <use fill="#11495F" xlink:href="#path-2"></use>
            </g>
            <g id="or" fill-rule="nonzero">
                <use fill="#FFFFFF" xlink:href="#path-3"></use>
                <use fill="#FFFFF0" xlink:href="#path-3"></use>
            </g>
            <path d="M1475.35,179.65 C1499.65,179.65 1512.85,166.45 1512.85,149.05 C1512.85,130.6 1498.6,123.7 1478.05,118.9 C1461.1,114.85 1452.25,111.55 1452.25,101.95 C1452.25,93.7 1460.35,86.35 1471.9,86.35 C1482.4,86.35 1492.75,91 1501.45,98.95 L1510.15,87.55 C1500.25,78.85 1488.4,73 1472.5,73 C1451.8,73 1436.8,86.05 1436.8,103.3 C1436.8,121.9 1450.75,128.2 1471.75,133.15 C1489,137.05 1497.55,140.8 1497.55,150.55 C1497.55,158.8 1490.2,166.3 1475.95,166.3 C1462,166.3 1451.2,160.6 1442.05,151.9 L1432.9,163.15 C1443.85,173.65 1458.1,179.65 1475.35,179.65 Z M1557.25,179.8 C1562.8,179.8 1568.5,177.7 1572.7,174.25 L1567.3,164.05 C1565.65,165.7 1562.65,166.9 1559.35,166.9 C1555,166.9 1551.4,163 1551.4,157.6 L1551.4,113.05 L1569.7,113.05 L1569.7,100.45 L1551.4,100.45 L1551.4,79.15 L1536.85,79.15 L1536.85,100.45 L1525.15,100.45 L1525.15,113.05 L1536.85,113.05 L1536.85,158.65 C1536.85,171.1 1545.25,179.8 1557.25,179.8 Z M1612.45,179.8 C1621.9,179.8 1632.55,175.45 1638.25,167.35 L1638.25,178 L1652.8,178 L1652.8,131.05 C1652.8,111.85 1641.25,98.65 1620.4,98.65 C1611.85,98.65 1602.1,100.9 1591,106.45 L1596.4,117.4 C1603.15,113.95 1610.65,110.95 1618.3,110.95 C1633.75,110.95 1638.25,121.3 1638.25,131.05 L1638.25,133.45 C1630.75,130.9 1622.5,129.25 1614.85,129.25 C1597.75,129.25 1583.8,139.6 1583.8,155.05 C1583.8,170.2 1595.95,179.8 1612.45,179.8 Z M1615.3,168.1 C1605.55,168.1 1598.05,163 1598.05,154.6 C1598.05,146.2 1606.75,140.35 1617.1,140.35 C1624.75,140.35 1631.95,141.4 1638.25,143.35 L1638.25,153.7 C1635.7,163.3 1624.9,168.1 1615.3,168.1 Z M1681.6,87.55 C1686.4,87.55 1690.45,83.35 1690.45,78.55 C1690.45,73.9 1686.4,69.7 1681.6,69.7 C1676.5,69.7 1672.6,73.9 1672.6,78.55 C1672.6,83.35 1676.5,87.55 1681.6,87.55 Z M1688.95,178 L1688.95,100.45 L1674.1,100.45 L1674.1,178 L1688.95,178 Z M1725.25,178 L1725.25,127.75 C1726.45,118.6 1735.75,111.55 1746.55,111.55 C1757.05,111.55 1764.4,119.65 1764.4,131.2 L1764.4,178 L1778.95,178 L1778.95,128.65 C1778.95,111.1 1766.95,98.65 1749.85,98.65 C1739.35,98.65 1729.9,104.05 1725.25,111.7 L1725.25,100.45 L1710.4,100.45 L1710.4,178 L1725.25,178 Z M1814.95,178 L1814.95,73.15 L1800.25,73.15 L1800.25,178 L1814.95,178 Z M1872.25,179.8 C1883.2,179.8 1896.7,175.15 1903.6,167.8 L1894.3,158.2 C1889.65,163 1880.2,166.6 1872.1,166.6 C1858.75,166.6 1849.3,157.3 1847.35,144.4 L1908.4,144.4 C1908.4,116.65 1894.75,98.65 1871.05,98.65 C1849.6,98.65 1832.35,115.75 1832.35,139 C1832.35,162.85 1850.65,179.8 1872.25,179.8 Z M1894,132.55 L1847.5,132.55 C1849.9,119.95 1859.65,111.85 1871.65,111.85 C1885,111.85 1892.35,120.55 1894,132.55 Z M1953.7,179.8 C1970.65,179.8 1983.1,170.5 1983.1,155.8 C1983.1,141.7405 1971.79644,136.997125 1960.15376,133.431308 L1959.38574,133.197819 L1959.38574,133.197819 L1958.23339,132.852851 C1957.72144,132.70072 1957.21,132.55 1956.7,132.4 C1943.65,128.35 1938.85,126.55 1938.85,120.55 C1938.85,114.7 1944.85,111.4 1952.5,111.4 C1959.25,111.4 1967.05,113.95 1974.55,118.6 L1981.15,107.65 C1972.75,102.1 1962.55,98.65 1952.5,98.65 C1936,98.65 1924.15,107.95 1924.3,122.2 C1924.3,134.8 1933.15,139.9 1951,144.85 C1960.6,147.55 1968.55,149.8 1968.55,157 C1968.55,163 1962.55,167.05 1953.85,167.05 C1944.7,167.05 1935.85,163.6 1927.6,157.6 L1920.55,168.25 C1929.85,175.75 1942.3,179.8 1953.7,179.8 Z M2028.4,179.8 C2045.35,179.8 2057.8,170.5 2057.8,155.8 C2057.8,141.7405 2046.49644,136.997125 2034.85376,133.431308 L2034.08574,133.197819 L2034.08574,133.197819 L2032.93339,132.852851 C2032.42144,132.70072 2031.91,132.55 2031.4,132.4 C2018.35,128.35 2013.55,126.55 2013.55,120.55 C2013.55,114.7 2019.55,111.4 2027.2,111.4 C2033.95,111.4 2041.75,113.95 2049.25,118.6 L2055.85,107.65 C2047.45,102.1 2037.25,98.65 2027.2,98.65 C2010.7,98.65 1998.85,107.95 1999,122.2 C1999,134.8 2007.85,139.9 2025.7,144.85 C2035.3,147.55 2043.25,149.8 2043.25,157 C2043.25,163 2037.25,167.05 2028.55,167.05 C2019.4,167.05 2010.55,163.6 2002.3,157.6 L1995.25,168.25 C2004.55,175.75 2017,179.8 2028.4,179.8 Z M2155.3,179.65 C2179.6,179.65 2192.8,166.45 2192.8,149.05 C2192.8,130.6 2178.55,123.7 2158,118.9 C2141.05,114.85 2132.2,111.55 2132.2,101.95 C2132.2,93.7 2140.3,86.35 2151.85,86.35 C2162.35,86.35 2172.7,91 2181.4,98.95 L2190.1,87.55 C2180.2,78.85 2168.35,73 2152.45,73 C2131.75,73 2116.75,86.05 2116.75,103.3 C2116.75,121.9 2130.7,128.2 2151.7,133.15 C2168.95,137.05 2177.5,140.8 2177.5,150.55 C2177.5,158.8 2170.15,166.3 2155.9,166.3 C2141.95,166.3 2131.15,160.6 2122,151.9 L2112.85,163.15 C2123.8,173.65 2138.05,179.65 2155.3,179.65 Z M2237.2,179.8 C2242.75,179.8 2248.45,177.7 2252.65,174.25 L2247.25,164.05 C2245.6,165.7 2242.6,166.9 2239.3,166.9 C2234.95,166.9 2231.35,163 2231.35,157.6 L2231.35,113.05 L2249.65,113.05 L2249.65,100.45 L2231.35,100.45 L2231.35,79.15 L2216.8,79.15 L2216.8,100.45 L2205.1,100.45 L2205.1,113.05 L2216.8,113.05 L2216.8,158.65 C2216.8,171.1 2225.2,179.8 2237.2,179.8 Z M2303.5,179.8 C2314.45,179.8 2327.95,175.15 2334.85,167.8 L2325.55,158.2 C2320.9,163 2311.45,166.6 2303.35,166.6 C2290,166.6 2280.55,157.3 2278.6,144.4 L2339.65,144.4 C2339.65,116.65 2326,98.65 2302.3,98.65 C2280.85,98.65 2263.6,115.75 2263.6,139 C2263.6,162.85 2281.9,179.8 2303.5,179.8 Z M2325.25,132.55 L2278.75,132.55 C2281.15,119.95 2290.9,111.85 2302.9,111.85 C2316.25,111.85 2323.6,120.55 2325.25,132.55 Z M2392.6,179.8 C2403.55,179.8 2417.05,175.15 2423.95,167.8 L2414.65,158.2 C2410,163 2400.55,166.6 2392.45,166.6 C2379.1,166.6 2369.65,157.3 2367.7,144.4 L2428.75,144.4 C2428.75,116.65 2415.1,98.65 2391.4,98.65 C2369.95,98.65 2352.7,115.75 2352.7,139 C2352.7,162.85 2371,179.8 2392.6,179.8 Z M2414.35,132.55 L2367.85,132.55 C2370.25,119.95 2380,111.85 2392,111.85 C2405.35,111.85 2412.7,120.55 2414.35,132.55 Z M2460.7,178 L2460.7,73.15 L2446,73.15 L2446,178 L2460.7,178 Z" id="StainlessSteel" fill="#11495F"></path>
            <path d="M2234.1,448.6 C2285.1,448.6 2316.6,422.8 2316.6,381.4 C2316.6,342.7 2286.9,329.5 2240.7,319.6 C2210.1,313 2200.2,308.8 2200.2,296.2 C2200.2,286 2209.5,278.2 2226,278.2 C2245.2,278.2 2265.9,285.7 2284.8,300.1 L2310.9,263.5 C2289,245.2 2262,235.3 2227.5,235.3 C2180.4,235.3 2148.6,261.7 2148.6,301.3 C2148.6,342.7 2181.3,354.7 2225.4,364.6 C2255.4,371.8 2265,374.5 2265,386.8 C2265,397.9 2255.1,405.7 2235.9,405.7 C2210.7,405.7 2188.2,396.1 2168.1,379.6 L2139.3,414.1 C2164.2,436.6 2197.5,448.6 2234.1,448.6 Z M2403.6,448.6 C2443.5,448.6 2468.7,428.5 2468.7,397.3 C2468.7,361.9 2437.8,352.9 2410.2,346.3 C2391.9,341.5 2385.3,340 2385.3,333.1 C2385.3,328.3 2391.9,324.1 2401.2,324.1 C2415.3,324.1 2432.1,330.7 2445.6,339.4 L2464.2,306.1 C2446.8,294.4 2424.3,286.3 2401.2,286.3 C2362.8,286.3 2338.5,308.5 2338.5,338.2 C2338.8,371.8 2366.7,379.6 2396.7,386.5 C2412,390.1 2422.2,393.1 2422.2,400.6 C2422.2,406.6 2415.9,410.2 2404.8,410.2 C2386.2,410.2 2366.4,402.7 2352,392.5 L2331.6,425.2 C2350.5,439.9 2377.5,448.6 2403.6,448.6 Z" id="Ss" fill="#11495F"></path>
        </g>
    </g>
</svg>