<?xml version="1.0" encoding="UTF-8"?>
<svg width="519px" height="404px" viewBox="0 0 519 404" version="1.1" xmlns="http://www.w3.org/2000/svg" xmlns:xlink="http://www.w3.org/1999/xlink">
    <title>career-icon-ppl-87x77</title>
    <defs>
        <filter color-interpolation-filters="auto" id="filter-1">
            <feColorMatrix in="SourceGraphic" type="matrix" values="0 0 0 0 0.066667 0 0 0 0 0.286275 0 0 0 0 0.372549 0 0 0 1.000000 0"></feColorMatrix>
        </filter>
    </defs>
    <g id="Symbols" stroke="none" stroke-width="1" fill="none" fill-rule="evenodd">
        <g filter="url(#filter-1)" id="career-icon-ppl-87x77">
            <g>
                <path d="M449.643528,90.3615411 C449.453161,87.6736994 448.007634,85.2317056 445.7409,83.7686598 C441.718192,82.330213 441.838273,80.1126075 442.438677,75.6773964 L442.438677,74.958173 C442.85896,71.7216676 443.039082,68.4851622 443.219203,65.3085922 C443.219203,63.9300806 443.219203,62.5515691 443.219203,61.1730575 C445.140496,33.9624383 432.65209,14.0039885 408.095559,5.01369582 C391.075294,-1.45854604 372.302802,-1.6710134 355.139911,4.41434298 C333.885603,11.9661888 321.757439,25.7513043 319.115661,45.4100777 C318.396765,53.1450983 318.396765,60.9299475 319.115661,68.6649681 C319.115661,71.1822501 319.115661,73.699532 319.115661,76.216814 C319.115661,76.8161668 319.115661,77.3555844 319.115661,77.8950019 C319.115661,80.7119603 319.115661,82.0904719 316.593963,83.2292423 C314.055862,84.8922387 312.385212,87.5913204 312.030892,90.6012823 C310.564045,99.6034526 312.913003,108.80914 318.515257,116.013843 C319.928183,117.92418 321.211895,119.926467 322.357843,122.007371 C323.25845,123.445818 324.099015,124.9442 324.999622,126.322712 C326.860875,129.199606 328.602047,132.31624 330.403259,135.073263 C334.372583,142.146085 338.974402,148.846156 344.152515,155.091649 C353.224479,165.89777 366.535938,172.257724 380.657088,172.532816 L380.657088,172.532816 C395.036641,172.199876 408.559155,165.636422 417.702026,154.552231 C422.159878,149.021975 426.174961,143.150178 429.710109,136.991193 L433.732817,130.578117 C435.353908,128.060835 436.914959,125.423683 438.41597,122.78653 C439.91698,120.149378 441.898314,116.793002 443.759567,114.155849 C448.612077,107.228671 450.70943,98.7471292 449.643528,90.3615411 Z M348.355344,144.602974 C345.510996,140.500186 342.904956,136.237767 340.55009,131.836758 C339.469362,129.858894 338.328594,127.881029 337.187826,125.84323 C336.047058,123.80543 335.146452,122.307048 334.065725,120.568925 C331.784189,116.733066 329.382572,112.717402 327.401238,108.581868 C325.19571,104.3684 323.656481,99.8396691 322.838167,95.1563639 C322.980961,93.505462 323.584137,91.9274931 324.579339,90.6012823 C324.579339,90.1817353 324.999622,89.7621883 325.239783,89.4025766 L331.243825,91.9797938 C331.763969,92.2795732 332.404813,92.2795732 332.924957,91.9797938 C333.410514,91.6172603 333.662881,91.0218011 333.585401,90.4214764 L332.984997,84.7276244 C332.564714,80.5920897 332.084391,76.2767492 331.544027,71.9614088 C330.305238,59.319949 338.050579,47.5227513 350.156556,43.6120191 C352.740206,43.2110508 355.374143,43.9064094 357.421447,45.5299482 C372.431551,59.9144165 391.524404,67.6460683 417.461864,69.8037385 C420.523925,69.8037385 423.465906,70.4630266 426.888209,70.8825736 L430.370554,71.3021206 L427.608694,90.960894 C427.543611,91.5594615 427.793477,92.1490202 428.269139,92.5192114 C428.789283,92.8189908 429.430127,92.8189908 429.950271,92.5192114 L435.954312,89.8221236 L436.494676,91.1406998 C437.528314,92.9751027 438.1049,95.0307332 438.175808,97.1342283 C437.86733,100.802334 436.716851,104.350268 434.813545,107.503033 C432.171766,112.477661 429.289826,117.45229 426.467927,122.247113 C423.646027,127.041935 421.604653,131.477146 419.022915,136.271969 C411.277701,150.416696 402.992123,157.60893 391.344283,160.246083 C375.139442,164.708119 357.882234,158.428448 348.355344,144.602974 L348.355344,144.602974 Z" id="Shape" fill="#2193D1" fill-rule="nonzero"></path>
                <path d="M512.685965,226.774249 C505.120873,201.301753 479.663736,195.907577 456.848378,191.232625 C444.961365,188.841755 433.570283,184.443295 423.165704,178.226668 L420.644006,176.728286 L399.449739,244.754834 L389.062747,206.276382 L389.062747,204.598194 L396.868001,195.847642 L397.228243,193.749907 C397.651792,191.21282 396.935736,188.6182 395.270372,186.655589 C393.605009,184.692977 391.159011,183.561153 388.582423,183.560909 L373.272117,183.560909 C370.685052,183.543456 368.222388,184.667694 366.543482,186.63262 C364.864577,188.597545 364.140917,191.202455 364.566257,193.749907 L364.926499,195.847642 L373.6924,204.89787 L362.284721,244.155481 L341.450696,180.684015 L340.55009,176.908092 L337.848271,178.526345 C327.533713,184.611172 316.270067,188.926407 304.525839,191.29256 C290.517715,193.202094 277.028354,197.86723 264.839124,205.017741 C270.843166,207.535023 277.507652,210.172175 283.811896,212.869263 C292.056283,216.368831 300.076864,220.3721 307.828062,224.85632 C331.243825,238.461629 342.771585,260.457879 349.436071,275.801312 C353.638901,285.630698 356.280679,305.049731 359.2827,350.600547 L361.203993,350.600547 L367.208035,350.600547 L371.230743,350.600547 L378.975957,350.600547 C422.514278,350.004411 465.929739,345.834844 508.783338,338.134008 C514.874952,337.059685 519.23469,331.657957 518.990209,325.487663 C518.269724,298.097238 517.789401,244.155481 512.685965,226.774249 Z" id="Shape" fill="#2193D1" fill-rule="nonzero"></path>
                <path d="M166.43288,264.053996 C152.584208,264.033 139.235288,258.886436 128.96766,249.609592 C123.924265,244.874705 123.26382,240.199753 127.106407,236.783441 C130.948994,233.36713 135.572106,234.985383 139.474733,238.641435 C155.321397,252.485467 178.985334,252.485467 194.831997,238.641435 C198.794665,234.925448 202.577211,233.007519 206.840081,237.143053 C211.102951,241.278588 209.782061,245.174381 204.678626,249.909269 C194.121079,259.183469 180.495098,264.222874 166.43288,264.053996 L166.43288,264.053996 Z" id="Path" fill="#1A4D75" fill-rule="nonzero"></path>
                <path d="M226.953621,264.053996 L254.332051,264.053996 C254.332051,264.053996 239.682189,232.827713 221.009619,215.44648 C221.879169,215.570017 222.72764,215.812013 223.531317,216.165704 C239.86231,223.058261 256.433465,229.471337 272.704418,236.42383 C280.074188,239.597747 287.251312,243.200038 294.198888,247.212181 C309.569235,256.202474 318.215055,270.527007 325.239783,286.349922 C330.403259,298.336979 333.465321,360.909416 334.425967,373.975308 C334.906291,380.927801 334.425967,381.886766 327.941602,384.284177 C311.10519,390.279799 293.674225,394.45912 275.946601,396.750716 C235.317949,402.006878 194.369857,404.410193 153.40411,403.94295 C138.514086,403.043921 109.454524,401.78528 80.5150434,399.387869 C57.472626,397.719581 34.7036611,393.374905 12.6693721,386.441847 C10.207715,385.662689 7.80609833,384.763659 5.46452207,383.86463 C0.421127034,381.886766 -0.239317553,380.987736 0.0608845319,375.533625 C0.961490788,358.032522 6.06492624,291.624227 14.1703825,276.100988 C21.7743771,260.83432 34.5315896,248.736189 50.1946328,241.937876 C67.1860708,234.565836 84.4176705,227.613343 101.529189,220.421109 C105.071574,218.982662 108.613959,217.60415 112.036262,215.866027 C113.108208,215.110007 114.499767,214.973372 115.698728,215.506415 C105.071574,226.234831 85.6785193,247.511857 80.3949626,264.113931 L105.852099,264.113931 L167.453567,318.954717 L226.953621,264.053996 Z" id="Path" fill="#1A4D75" fill-rule="nonzero"></path>
                <path d="M257.634274,107.862644 C255.17368,80.351373 243.766444,54.3985193 225.152408,33.9624383 C215.906184,24.1929869 205.819394,14.4834708 192.010098,12.5655417 C178.416541,10.7786844 164.67454,10.3970726 151.002493,11.4267713 C133.951015,12.625477 120.501961,22.1551872 108.974201,34.32205 C90.4797995,54.8287632 79.1823888,80.7925575 76.7925375,108.282191 C73.8451911,128.999257 76.7349926,150.126356 85.1381555,169.296311 C85.9787214,171.154305 88.3202976,173.611651 89.9413889,173.611651 L103.990846,173.611651 C116.839496,201.361688 140.375339,220.181368 167.273446,220.181368 C194.171553,220.181368 217.527275,201.661365 230.435965,174.031198 L241.903684,174.031198 C245.607063,174.532568 249.087291,172.147342 249.9491,168.517152 C257.8539,149.337091 260.506285,128.403394 257.634274,107.862644 L257.634274,107.862644 Z M167.573648,208.853599 C146.619543,208.853599 128.067054,194.888678 116.719415,173.611651 L117.620021,173.611651 C93.6038543,109.06135 126.02568,65.1287863 138.574127,51.2837356 C140.487032,49.9613947 142.493663,48.7795557 144.578168,47.7475538 C144.871182,48.0009198 145.115354,48.3055996 145.298653,48.646583 C150.762331,68.3053564 164.93187,80.652025 181.322904,91.380441 C188.750396,96.1029969 195.81473,101.371936 202.45713,107.143421 C208.827229,113.436687 214.840616,120.079849 220.469256,127.041935 C222.690751,114.095914 211.703355,107.203356 205.999515,97.7335811 C217.126229,103.949471 225.537415,114.076496 229.595399,126.142906 C229.355237,171.813593 201.496484,208.853599 167.273446,208.853599 L167.573648,208.853599 Z" id="Shape" fill="#1A4D75" fill-rule="nonzero"></path>
            </g>
        </g>
    </g>
</svg>