<?xml version="1.0" encoding="UTF-8"?>
<svg width="395px" height="521px" viewBox="0 0 395 521" version="1.1" xmlns="http://www.w3.org/2000/svg" xmlns:xlink="http://www.w3.org/1999/xlink">
    <title>door_icon</title>
    <defs>
        <filter color-interpolation-filters="auto" id="filter-1">
            <feColorMatrix in="SourceGraphic" type="matrix" values="0 0 0 0 0.066667 0 0 0 0 0.286275 0 0 0 0 0.372549 0 0 0 1.000000 0"></feColorMatrix>
        </filter>
    </defs>
    <g id="Symbols" stroke="none" stroke-width="1" fill="none" fill-rule="evenodd">
        <g filter="url(#filter-1)" id="door_icon">
            <g transform="translate(0.000000, 0.000000)">
                <path d="M382.202,0 L79.568,0 C72.885,0 67.463,5.423 67.463,12.105 L67.463,193.084 L84.113,193.084 C79.107,186.692 76.388,178.86 76.388,170.617 C76.382,160.853 80.188,151.674 87.096,144.772 C88.517,143.351 90.069,142.085 91.679,140.927 L91.679,24.211 L370.096,24.211 L370.096,32.908 L242.992,125.193 L242.992,520.348 L370.788,427.561 C372.414,432.331 376.883,435.789 382.202,435.789 C388.887,435.789 394.307,430.363 394.307,423.684 L394.307,12.105 C394.307,5.417 388.886,0 382.202,0 Z M291.01,331.973 C285.3,331.973 280.542,324.927 279.319,315.488 L265.689,315.488 L265.689,304.896 L279.508,304.896 C280.956,296.036 285.525,289.516 290.998,289.516 C297.636,289.516 303.00902,299.014 303.00902,310.747 C303.021,322.468 297.642,331.973 291.01,331.973 Z M87.101,314.471 C88.525,315.883 90.068,317.149 91.673,318.295 L91.673,423.684 C91.673,430.364 86.247,435.789 79.568,435.789 C72.885,435.789 67.463,430.363 67.463,423.684 L67.463,266.139 L84.113,266.139 C72.927,280.466 73.914,301.271 87.101,314.471 Z M173.685,218.385 C178.502,223.202 178.502,230.993 173.685,235.81 L114.69,294.811 C112.287,297.205 109.134,298.416 105.981,298.422 C102.828,298.416 99.674,297.216 97.271,294.811 C92.46,289.994 92.466,282.198 97.271,277.392 L135.245,239.415 L12.315,239.415 C5.512,239.415 2.84217094e-14,233.903 2.84217094e-14,227.1 C2.84217094e-14,220.297 5.506,214.782 12.321,214.782 L135.238,214.782 L97.27,176.808 C92.465,172.003 92.459,164.2 97.27,159.395 C102.082,154.583 109.884,154.583 114.695,159.395 L173.685,218.385 Z" id="Shape" fill="#000000" fill-rule="nonzero"></path>
            </g>
        </g>
    </g>
</svg>