<?xml version="1.0" encoding="UTF-8"?>
<svg width="772px" height="512px" viewBox="0 0 772 512" version="1.1" xmlns="http://www.w3.org/2000/svg" xmlns:xlink="http://www.w3.org/1999/xlink">
    <title>email-forward</title>
    <defs>
        <filter id="filter-1">
            <feColorMatrix in="SourceGraphic" type="matrix" values="0 0 0 0 0.066667 0 0 0 0 0.286275 0 0 0 0 0.372549 0 0 0 1.000000 0"></feColorMatrix>
        </filter>
    </defs>
    <g id="Symbols" stroke="none" stroke-width="1" fill="none" fill-rule="evenodd">
        <g filter="url(#filter-1)" id="email-forward">
            <g>
                <path d="M772,366.019402 L627.501328,512 L627.501328,439.260958 C536.153037,420.416647 464.155002,441.208204 409.119856,510.680898 C418.606508,367.778204 516.300176,298.808025 627.501328,294.222576 L627.501328,219.85036 L772,365.768144 L772,366.019402 Z M41.9675773,3.08541063e-05 L630.014348,3.08541063e-05 C635.494014,-0.00668348727 640.919675,1.08252773 645.972028,3.20359492 C651.111504,5.38706172 655.766678,8.5682452 659.667989,12.5629362 C667.650965,20.3696936 672.175946,31.0467539 672.233091,42.2113193 L672.233091,165.830001 C672.233091,167.980869 670.489158,169.724492 668.337909,169.724492 C667.184169,169.703458 666.09138,169.202685 665.322285,168.342576 C661.621163,164.407514 657.392595,161.00412 652.757183,158.229463 C648.112246,155.493744 643.127084,153.381762 637.930362,151.948025 C636.283122,151.457448 635.140818,149.960026 635.103214,148.241978 L635.103214,61.9350318 L445.558652,223.305151 L480.049856,259.486229 C481.509806,261.015427 481.509806,263.421881 480.049856,264.951079 L479.044648,265.579223 C474.772514,267.903354 470.500379,270.2903 466.479546,272.802875 C462.458714,275.31545 458.186579,277.953654 453.914444,280.717486 C452.263881,281.850098 450.019498,281.52171 448.762753,279.963714 L417.349998,247.237426 L353.205152,301.885929 C346.378591,307.629018 336.409322,307.629018 329.582761,301.885929 L262.108163,247.111798 L58.7419884,451.007246 L332.53556,451.007246 C333.562805,450.990406 334.553798,451.386654 335.28615,452.107066 C336.018502,452.827478 336.430879,453.811721 336.430741,454.838922 L336.430741,456.032395 C335.362708,460.680659 334.357499,465.328922 333.477942,469.977186 L333.477942,469.977186 C332.598385,474.562635 331.781654,479.462156 331.027747,484.55012 C330.720612,486.429147 329.099675,487.810685 327.195391,487.816498 L41.9675773,487.816498 C36.4675971,487.823144 31.0214088,486.734099 25.9470723,484.612934 C20.9590211,482.490786 16.4183214,479.442875 12.5652388,475.630479 C8.57667159,471.748336 5.39531472,467.115906 3.20423782,461.999761 L3.20423782,461.999761 C1.07945829,456.927314 -0.00991125683,451.481432 6.79446995e-05,445.982096 L6.79446995e-05,41.9600618 C6.79446995e-05,36.4617158 1.08911434,31.0177936 3.20423782,25.9423972 C5.4391431,20.9245484 8.6170202,16.3824826 12.5652388,12.5629362 C16.3964501,8.62831894 20.9366878,5.45284723 25.9470723,3.20359492 C31.0214088,1.08243014 36.4675971,-0.00661439653 41.9675773,3.08541063e-05 Z M37.004362,420.856348 L233.396905,223.682037 L37.004362,63.5682054 L37.004362,420.856348 Z M62.8256465,36.9977265 L341.079829,263.82042 L607.45999,36.9977265 L62.8256465,36.9977265 Z" id="Shape" fill="#000000" fill-rule="nonzero"></path>
            </g>
        </g>
    </g>
</svg>