<?xml version="1.0" encoding="UTF-8"?>
<svg width="512px" height="456px" viewBox="0 0 512 456" version="1.1" xmlns="http://www.w3.org/2000/svg" xmlns:xlink="http://www.w3.org/1999/xlink">
    <title>Solid/exclamation-triangle</title>
    <defs>
        <path d="M506.237333,419.567111 C522.644444,448.006222 502.049778,483.555556 469.28,483.555556 L42.7146667,483.555556 C9.88177778,483.555556 -10.6177778,447.951111 5.75733333,419.567111 L219.042667,49.7644444 C235.457778,21.312 276.571556,21.3635556 292.957333,49.7644444 L506.237333,419.567111 Z M256,343.111111 C233.417778,343.111111 215.111111,361.417778 215.111111,384 C215.111111,406.582222 233.417778,424.888889 256,424.888889 C278.582222,424.888889 296.888889,406.582222 296.888889,384 C296.888889,361.417778 278.582222,343.111111 256,343.111111 Z M217.179556,196.136889 L223.773333,317.025778 C224.081778,322.682667 228.759111,327.111111 234.424,327.111111 L277.576,327.111111 C283.240889,327.111111 287.918222,322.682667 288.226667,317.025778 L294.820444,196.136889 C295.153778,190.026667 290.288889,184.888889 284.169778,184.888889 L227.829333,184.888889 C221.710222,184.888889 216.846222,190.026667 217.179556,196.136889 L217.179556,196.136889 Z" id="path-1"></path>
    </defs>
    <g id="Symbols" stroke="none" stroke-width="1" fill="none" fill-rule="evenodd">
        <g id="Solid/exclamation-triangle" transform="translate(0.000000, -28.000000)">
            <mask id="mask-2" fill="white">
                <use xlink:href="#path-1"></use>
            </mask>
            <use id="Mask" fill="#11495F" xlink:href="#path-1"></use>
        </g>
    </g>
</svg>