<?xml version="1.0" encoding="UTF-8"?>
<svg width="45px" height="47px" viewBox="0 0 45 47" version="1.1" xmlns="http://www.w3.org/2000/svg" xmlns:xlink="http://www.w3.org/1999/xlink">
    <title>icon</title>
    <defs>
        <filter id="filter-1">
            <feColorMatrix in="SourceGraphic" type="matrix" values="0 0 0 0 0.066667 0 0 0 0 0.286275 0 0 0 0 0.372549 0 0 0 1.000000 0"></feColorMatrix>
        </filter>
        <path d="M16.4873518,8.00535041 L15.5790982,14.4390586 L19.4861847,9.24750768 L16.7303825,13.9172205 C17.0901097,13.6204344 17.4612264,13.3328263 17.8436392,13.0549872 C24.9733757,7.8749304 34.1192434,7.47854569 41.4519312,11.2593298 C38.625861,10.100326 35.5075262,9.45767033 32.2305238,9.45767033 C19.4158618,9.45767033 9.02752561,19.2850812 9.02752561,31.4078068 C9.02752561,43.5305325 19.4158618,53.3579434 32.2305238,53.3579434 C34.6623805,53.3579434 37.0068575,53.0040269 39.2095402,52.3476704 C29.9056396,55.9403708 18.9946024,53.0060727 12.8545293,44.5549872 C6.8971219,36.3553193 7.26684747,25.4890117 13.0411314,17.7809712 L7.94739814,20.7862942 L13.1389491,16.8792078 L6.70524087,17.7874613 L12.9967858,16.1645046 L6.70524087,14.541548 L13.1389491,15.4498015 L7.94739814,11.542715 L13.5437959,14.8439054 L10.2426055,9.24750768 L14.149692,14.4390586 L13.2414384,8.00535041 L14.8643951,14.2968953 L16.4873518,8.00535041 Z" id="path-2"></path>
        <filter x="-0.0%" y="0.0%" width="100.0%" height="100.0%" filterUnits="objectBoundingBox" id="filter-3">
            <feOffset dx="0" dy="0" in="SourceAlpha" result="shadowOffsetOuter1"></feOffset>
            <feColorMatrix values="0 0 0 0 1   0 0 0 0 1   0 0 0 0 1  0 0 0 1 0" type="matrix" in="shadowOffsetOuter1"></feColorMatrix>
        </filter>
    </defs>
    <g id="Global-Shielding-Logo" stroke="none" stroke-width="1" fill="none" fill-rule="evenodd">
        <g filter="url(#filter-1)" id="icon">
            <g transform="translate(-6.000000, -8.000000)">
                <g id="Combined-Shape">
                    <use fill="black" fill-opacity="1" filter="url(#filter-3)" xlink:href="#path-2"></use>
                    <use fill="#FFFFFF" fill-rule="evenodd" xlink:href="#path-2"></use>
                </g>
                <path d="M31.5,8.94848988 C31.8409937,8.94848988 32.1802198,8.95605809 32.5175195,8.97103569 C21.6276404,9.48733913 12.9576472,18.4788875 12.9576472,29.4954213 C12.9576472,40.8431782 22.1568218,50.0423528 33.5045787,50.0423528 C44.5211125,50.0423528 53.5126609,41.3723596 54.0281734,30.4834237 C54.0439419,30.8197802 54.0515101,31.1590063 54.0515101,31.5 C54.0515101,43.9548551 43.9548551,54.0515101 31.5,54.0515101 C19.0451449,54.0515101 8.94848988,43.9548551 8.94848988,31.5 C8.94848988,19.0451449 19.0451449,8.94848988 31.5,8.94848988 Z" id="Combined-Shape" fill="#FFFFFF" transform="translate(31.500000, 31.500000) rotate(54.000000) translate(-31.500000, -31.500000) "></path>
                <text id="G" font-family="Metropolis-ExtraBold, Metropolis" font-size="40" font-weight="700" fill="#FFFFFF">
                    <tspan x="18.9737814" y="45.7956396">G</tspan>
                </text>
            </g>
        </g>
    </g>
</svg>