<?xml version="1.0" encoding="UTF-8"?>
<svg width="762px" height="471px" viewBox="0 0 762 471" version="1.1" xmlns="http://www.w3.org/2000/svg" xmlns:xlink="http://www.w3.org/1999/xlink">
    <title>light logo</title>
    <defs>
        <path d="M285.550178,308.745178 C306.220178,308.745178 326.695178,300.165178 340.345178,285.540178 L340.345178,229.575178 L279.310178,229.575178 L279.310178,254.730178 L307.975178,254.730178 L307.975178,271.500178 C301.345178,275.985178 293.350178,278.520178 285.550178,278.520178 C264.685178,278.520178 246.940178,260.580178 246.940178,239.325178 C246.940178,218.265178 264.685178,200.325178 285.550178,200.325178 C297.055178,200.325178 308.755178,205.785178 315.970178,214.755178 L340.345178,193.110178 C326.695178,178.680178 306.220178,170.100178 285.550178,170.100178 C245.965178,170.100178 212.815178,201.690178 212.815178,239.325178 C212.815178,276.960178 245.965178,308.745178 285.550178,308.745178 Z M394.750178,306.405178 L394.750178,170.100178 L361.600178,170.100178 L361.600178,306.405178 L394.750178,306.405178 Z M468.265178,308.745178 C498.685178,308.745178 524.230178,284.565178 524.230178,255.900178 C524.230178,227.235178 498.685178,203.250178 468.265178,203.250178 C437.845178,203.250178 412.300178,227.235178 412.300178,255.900178 C412.300178,284.565178 437.845178,308.745178 468.265178,308.745178 Z M468.265178,281.250178 C454.810178,281.250178 443.500178,269.550178 443.500178,255.900178 C443.500178,242.250178 454.810178,230.745178 468.265178,230.745178 C481.720178,230.745178 493.030178,242.250178 493.030178,255.900178 C493.030178,269.550178 481.720178,281.250178 468.265178,281.250178 Z M607.300178,308.745178 C634.405178,308.745178 653.515178,286.905178 653.515178,255.900178 C653.515178,225.090178 634.405178,203.250178 607.300178,203.250178 C593.845178,203.250178 582.340178,208.905178 574.345178,218.460178 L574.345178,170.100178 L541.195178,170.100178 L541.195178,306.405178 L574.345178,306.405178 L574.345178,293.535178 C582.340178,303.090178 593.845178,308.745178 607.300178,308.745178 Z M597.355178,281.250178 C583.705178,281.250178 574.345178,270.720178 574.345178,255.900178 C574.345178,241.275178 583.705178,230.745178 597.355178,230.745178 C611.590178,230.745178 621.730178,241.275178 621.730178,255.900178 C621.730178,270.720178 611.590178,281.250178 597.355178,281.250178 Z M704.020178,308.745178 C714.355178,308.745178 724.885178,304.845178 731.905178,297.825178 L731.905178,306.405178 L763.690178,306.405178 L763.690178,246.540178 C763.690178,219.630178 744.190178,203.250178 718.255178,203.250178 C702.655178,203.250178 688.225178,207.735178 674.185178,214.755178 L684.520178,235.425178 C693.100178,230.940178 700.315178,228.015178 709.870178,228.015178 C723.715178,228.015178 731.905178,235.815178 731.905178,246.540178 L731.905178,247.905178 C724.105178,244.785178 715.720178,243.030178 708.310178,243.030178 C684.520178,243.030178 665.605178,256.875178 665.605178,276.570178 C665.605178,295.680178 682.570178,308.745178 704.020178,308.745178 Z M712.015178,288.465178 C703.240178,288.465178 697.000178,283.395178 697.000178,275.595178 C697.000178,267.795178 704.020178,262.140178 712.990178,262.140178 C719.815178,262.140178 726.835178,263.505178 731.905178,265.455178 L731.905178,276.180178 C730.540178,283.785178 721.765178,288.465178 712.015178,288.465178 Z M818.680178,306.405178 L818.680178,170.100178 L785.530178,170.100178 L785.530178,306.405178 L818.680178,306.405178 Z" id="path-1"></path>
    </defs>
    <g id="Global-Shielding-Logo" stroke="none" stroke-width="1" fill="none" fill-rule="evenodd">
        <g id="light-logo" transform="translate(-65.381252, -77.405178)">
            <path d="M163.597675,78 L154.535885,142.190129 L193.517508,90.3932005 L166.036513,136.97205 C169.621171,134.01508 173.319167,131.149449 177.12957,128.381029 C237.452007,84.5542131 312.239585,75.0488218 378.194068,96.1747765 C358.241616,90.4657439 337.168305,87.4098524 315.381252,87.4098524 C189.460329,87.4098524 87.3812518,189.488929 87.3812518,315.409852 C87.3812518,351.99006 95.9958153,386.558229 111.3069,417.196316 C69.2042824,339.336396 77.4048131,244.693091 129.213913,175.533288 L78.3932005,205.517508 L130.190129,166.535885 L66,175.597675 L128.771744,159.405178 L66,143.212682 L130.190129,152.274472 L78.3932005,113.292849 L134.22935,146.22935 L101.292849,90.3932005 L140.274472,142.190129 L131.212682,78 L147.405178,140.771744 L163.597675,78 Z" id="Combined-Shape" fill="#1B87B0"></path>
            <g id="Group" transform="translate(0.000000, 0.000000)" fill="#11495F">
                <path d="M315,90 C319.223626,90 323.42007,90.1163762 327.586302,90.3460969 C222.397306,96.4816709 139,183.300168 139,289.5 C139,399.680808 228.766908,489 339.5,489 C446.057582,489 533.200348,406.289882 539.620774,301.871397 C539.873247,306.213788 540,310.592091 540,315 C540,439.264069 439.264069,540 315,540 C190.735931,540 90,439.264069 90,315 C90,190.735931 190.735931,90 315,90 Z" id="Combined-Shape" transform="translate(315.000000, 315.000000) rotate(54.000000) translate(-315.000000, -315.000000) "></path>
            </g>
            <g id="Global" fill-rule="nonzero">
                <use fill="#60BCD9" xlink:href="#path-1"></use>
                <use fill="#1B87B0" xlink:href="#path-1"></use>
            </g>
            <path d="M260.056538,462.982938 C282.408138,462.982938 296.213538,451.675658 296.213538,433.531418 C296.213538,416.570498 283.197018,410.785378 262.949098,406.446538 C249.538138,403.553978 245.199298,401.713258 245.199298,396.191098 C245.199298,391.720778 249.275178,388.302298 256.506578,388.302298 C264.921298,388.302298 273.993418,391.589298 282.276658,397.900338 L293.715418,381.859778 C284.117378,373.839498 272.284178,369.500658 257.163978,369.500658 C236.521618,369.500658 222.584738,381.070898 222.584738,398.426258 C222.584738,416.570498 236.916058,421.829698 256.243618,426.168538 C269.391618,429.324058 273.598978,430.507378 273.598978,435.898058 C273.598978,440.762818 269.260138,444.181298 260.845418,444.181298 C249.801098,444.181298 239.940098,439.973938 231.130938,432.742538 L218.508858,447.862738 C229.421698,457.723738 244.015978,462.982938 260.056538,462.982938 Z M330.135378,461.405178 L330.135378,422.224138 C330.135378,415.518658 335.263098,410.390938 342.100058,410.390938 C348.937018,410.390938 353.670298,415.650138 353.670298,423.144498 L353.670298,461.405178 L374.970058,461.405178 L374.970058,418.148258 C374.970058,402.765098 364.583138,391.852258 349.988858,391.852258 C341.442658,391.852258 334.342738,395.402218 330.135378,401.055858 L330.135378,369.500658 L307.783778,369.500658 L307.783778,461.405178 L330.135378,461.405178 Z M401.134578,385.146778 C407.577098,385.146778 412.704818,379.756098 412.704818,373.313578 C412.704818,367.134018 407.577098,361.743338 401.134578,361.743338 C394.560578,361.743338 389.301378,367.134018 389.301378,373.313578 C389.301378,379.756098 394.560578,385.146778 401.134578,385.146778 Z M412.047418,461.405178 L412.047418,393.430018 L389.827298,393.430018 L389.827298,461.405178 L412.047418,461.405178 Z M460.563538,462.982938 C470.687498,462.982938 482.389218,458.644098 488.437298,452.464538 L475.289298,439.185058 C471.213418,442.735018 465.165338,444.970178 459.906138,444.970178 C452.674738,444.970178 447.284058,440.368378 445.180378,433.531418 L493.696498,433.531418 C493.696498,407.629858 481.074418,391.852258 459.511698,391.852258 C439.000818,391.852258 424.012098,406.578018 424.012098,427.220378 C424.012098,448.125698 439.526738,462.982938 460.563538,462.982938 Z M473.054138,419.988978 L445.443338,419.988978 C447.809978,413.677938 453.200658,409.733538 459.906138,409.733538 C466.611618,409.733538 471.213418,413.809418 473.054138,419.988978 Z M527.881298,461.405178 L527.881298,369.500658 L505.529698,369.500658 L505.529698,461.405178 L527.881298,461.405178 Z M571.269698,462.982938 C580.341818,462.982938 588.099138,459.170018 593.489818,452.727498 L593.489818,461.405178 L615.841418,461.405178 L615.841418,369.500658 L593.489818,369.500658 L593.489818,402.107698 C588.099138,395.665178 580.341818,391.852258 571.269698,391.852258 C552.993978,391.852258 540.108938,406.578018 540.108938,427.351858 C540.108938,448.257178 552.993978,462.982938 571.269698,462.982938 Z M577.975178,444.444258 C568.377138,444.444258 561.540178,437.344338 561.540178,427.351858 C561.540178,417.490858 568.377138,410.390938 577.975178,410.390938 C587.178778,410.390938 593.489818,417.490858 593.489818,427.351858 C593.489818,437.344338 587.178778,444.444258 577.975178,444.444258 Z M642.400378,385.146778 C648.842898,385.146778 653.970618,379.756098 653.970618,373.313578 C653.970618,367.134018 648.842898,361.743338 642.400378,361.743338 C635.826378,361.743338 630.567178,367.134018 630.567178,373.313578 C630.567178,379.756098 635.826378,385.146778 642.400378,385.146778 Z M653.313218,461.405178 L653.313218,393.430018 L631.093098,393.430018 L631.093098,461.405178 L653.313218,461.405178 Z M690.785018,461.405178 L690.785018,421.829698 L690.916498,422.224138 C690.916498,415.518658 696.044218,410.390938 702.881178,410.390938 C709.718138,410.390938 714.451418,415.650138 714.451418,423.144498 L714.451418,461.405178 L735.751178,461.405178 L735.751178,418.148258 C735.751178,402.765098 725.364258,391.852258 710.769978,391.852258 C702.223778,391.852258 694.992378,395.402218 690.785018,401.187338 L690.785018,393.430018 L668.564898,393.430018 L668.564898,461.405178 L690.785018,461.405178 Z M783.478418,484.019738 C805.567058,484.019738 821.081698,471.660618 821.081698,454.173778 L821.081698,393.430018 L798.730098,393.430018 L798.730098,401.713258 C794.259778,395.928138 785.582098,391.852258 777.035898,391.852258 C760.206458,391.852258 747.189938,405.131738 747.189938,424.064858 C747.189938,442.997978 760.206458,456.408938 777.035898,456.408938 C785.450618,456.408938 793.339418,452.858978 798.730098,446.679418 L798.730098,453.121938 C798.730098,460.353338 791.235738,465.481058 780.059938,465.481058 C772.302618,465.481058 764.413818,462.982938 760.206458,459.432978 L752.712098,474.947618 C759.680538,480.206818 771.250778,484.019738 783.478418,484.019738 Z M784.398778,437.870258 C776.115538,437.870258 770.067458,432.085138 770.067458,424.064858 C770.067458,416.044578 776.115538,410.390938 784.398778,410.390938 C792.813498,410.390938 798.730098,416.044578 798.730098,424.064858 C798.730098,432.085138 792.813498,437.870258 784.398778,437.870258 Z" id="Shielding" fill="#11495F" fill-rule="nonzero"></path>
            <line x1="216.184748" y1="338.155178" x2="819.881252" y2="338.905178" id="Line" stroke="#FFC107" stroke-width="9.8"></line>
        </g>
    </g>
</svg>