<?xml version="1.0" encoding="UTF-8"?>
<svg width="481px" height="510px" viewBox="0 0 481 510" version="1.1" xmlns="http://www.w3.org/2000/svg" xmlns:xlink="http://www.w3.org/1999/xlink">
    <title>icon</title>
    <defs>
        <path d="M164.597675,80 L155.535885,144.190129 L194.517508,92.3932005 L167.036513,138.97205 C170.621171,136.01508 174.319167,133.149449 178.12957,130.381029 C249.274788,78.6910022 340.541321,74.7427965 413.706275,112.4825 C385.49895,100.906408 354.376459,94.4900267 321.669804,94.4900267 C193.815884,94.4900267 90.1698039,192.539666 90.1698039,313.490027 C90.1698039,434.440387 193.815884,532.490027 321.669804,532.490027 C345.942605,532.490027 369.342901,528.956099 391.327133,522.402453 C298.489001,558.259332 189.617115,528.985142 128.352428,444.661534 C68.9145217,362.852274 72.6032266,254.43761 130.213913,177.533288 L79.3932005,207.517508 L131.190129,168.535885 L67,177.597675 L129.771744,161.405178 L67,145.212682 L131.190129,154.274472 L79.3932005,115.292849 L135.22935,148.22935 L102.292849,92.3932005 L141.274472,144.190129 L132.212682,80 L148.405178,142.771744 L164.597675,80 Z" id="path-1"></path>
        <filter x="-10.1%" y="-7.6%" width="122.1%" height="109.0%" filterUnits="objectBoundingBox" id="filter-2">
            <feMorphology radius="1" operator="dilate" in="SourceAlpha" result="shadowSpreadOuter1"></feMorphology>
            <feOffset dx="2" dy="2" in="shadowSpreadOuter1" result="shadowOffsetOuter1"></feOffset>
            <feColorMatrix values="0 0 0 0 1   0 0 0 0 1   0 0 0 0 1  0 0 0 1 0" type="matrix" in="shadowOffsetOuter1"></feColorMatrix>
        </filter>
    </defs>
    <g id="Global-Shielding-Logo" stroke="none" stroke-width="1" fill="none" fill-rule="evenodd">
        <g id="icon" transform="translate(-28.405178, -42.405178)">
            <g id="Combined-Shape">
                <use fill="black" fill-opacity="1" filter="url(#filter-2)" xlink:href="#path-1"></use>
                <use fill="#FFFFFF" fill-rule="evenodd" xlink:href="#path-1"></use>
            </g>
            <path d="M314.381252,89.4098524 C317.79885,89.4098524 321.198652,89.486049 324.579051,89.6368359 C215.911273,94.7568752 129.381252,184.478279 129.381252,294.409852 C129.381252,407.628226 221.162878,499.409852 334.381252,499.409852 C444.312825,499.409852 534.034229,412.879831 539.150918,304.214333 C539.305055,307.592452 539.381252,310.992254 539.381252,314.409852 C539.381252,438.673921 438.645321,539.409852 314.381252,539.409852 C190.117183,539.409852 89.3812518,438.673921 89.3812518,314.409852 C89.3812518,190.145784 190.117183,89.4098524 314.381252,89.4098524 Z" id="Combined-Shape" fill="#FFFFFF" transform="translate(314.381252, 314.409852) rotate(54.000000) translate(-314.381252, -314.409852) "></path>
        </g>
    </g>
</svg>