<svg id="e7kj35rctbj61" xmlns="http://www.w3.org/2000/svg" xmlns:xlink="http://www.w3.org/1999/xlink" viewBox="0 0 762 471" shape-rendering="geometricPrecision" text-rendering="geometricPrecision"><style><![CDATA[#e7kj35rctbj65_to {animation: e7kj35rctbj65_to__to 3000ms linear 1 normal forwards}@keyframes e7kj35rctbj65_to__to { 0% {transform: translate(519.795303px,249.543408px)} 33.333333% {transform: translate(519.795303px,249.543408px)} 50% {transform: translate(519.795303px,422.883408px)} 100% {transform: translate(519.795303px,422.883408px)} }#e7kj35rctbj67_to {animation: e7kj35rctbj67_to__to 3000ms linear 1 normal forwards}@keyframes e7kj35rctbj67_to__to { 0% {transform: translate(515.747681px,239.422676px)} 16.666667% {transform: translate(515.747681px,239.422676px)} 33.333333% {transform: translate(515.747681px,50.112664px)} 100% {transform: translate(515.747681px,50.112664px)} }#e7kj35rctbj69 {animation: e7kj35rctbj69_c_o 3000ms linear 1 normal forwards}@keyframes e7kj35rctbj69_c_o { 0% {opacity: 1} 33.333333% {opacity: 1} 36.666667% {opacity: 0} 100% {opacity: 0} }#e7kj35rctbj610 {animation: e7kj35rctbj610_s_do 3000ms linear 1 normal forwards}@keyframes e7kj35rctbj610_s_do { 0% {stroke-dashoffset: 603.700000} 16.666667% {stroke-dashoffset: 0} 100% {stroke-dashoffset: 0} }#e7kj35rctbj612 {animation: e7kj35rctbj612_c_o 3000ms linear 1 normal forwards}@keyframes e7kj35rctbj612_c_o { 0% {opacity: 0} 66.666667% {opacity: 0} 83.333333% {opacity: 1} 100% {opacity: 1} }#e7kj35rctbj613 {animation: e7kj35rctbj613_c_o 3000ms linear 1 normal forwards}@keyframes e7kj35rctbj613_c_o { 0% {opacity: 0} 50% {opacity: 0} 66.666667% {opacity: 1} 100% {opacity: 1} }]]></style><defs><path id="e7kj35rctbj62" d="M285.550178,308.745178C306.220178,308.745178,326.695178,300.165178,340.345178,285.540178L340.345178,229.575178L279.310178,229.575178L279.310178,254.730178L307.975178,254.730178L307.975178,271.500178C301.345178,275.985178,293.350178,278.520178,285.550178,278.520178C264.685178,278.520178,246.940178,260.580178,246.940178,239.325178C246.940178,218.265178,264.685178,200.325178,285.550178,200.325178C297.055178,200.325178,308.755178,205.785178,315.970178,214.755178L340.345178,193.110178C326.695178,178.680178,306.220178,170.100178,285.550178,170.100178C245.965178,170.100178,212.815178,201.690178,212.815178,239.325178C212.815178,276.960178,245.965178,308.745178,285.550178,308.745178ZM394.750178,306.405178L394.750178,170.100178L361.600178,170.100178L361.600178,306.405178L394.750178,306.405178ZM468.265178,308.745178C498.685178,308.745178,524.230178,284.565178,524.230178,255.900178C524.230178,227.235178,498.685178,203.250178,468.265178,203.250178C437.845178,203.250178,412.300178,227.235178,412.300178,255.900178C412.300178,284.565178,437.845178,308.745178,468.265178,308.745178ZM468.265178,281.250178C454.810178,281.250178,443.500178,269.550178,443.500178,255.900178C443.500178,242.250178,454.810178,230.745178,468.265178,230.745178C481.720178,230.745178,493.030178,242.250178,493.030178,255.900178C493.030178,269.550178,481.720178,281.250178,468.265178,281.250178ZM607.300178,308.745178C634.405178,308.745178,653.515178,286.905178,653.515178,255.900178C653.515178,225.090178,634.405178,203.250178,607.300178,203.250178C593.845178,203.250178,582.340178,208.905178,574.345178,218.460178L574.345178,170.100178L541.195178,170.100178L541.195178,306.405178L574.345178,306.405178L574.345178,293.535178C582.340178,303.090178,593.845178,308.745178,607.300178,308.745178ZM597.355178,281.250178C583.705178,281.250178,574.345178,270.720178,574.345178,255.900178C574.345178,241.275178,583.705178,230.745178,597.355178,230.745178C611.590178,230.745178,621.730178,241.275178,621.730178,255.900178C621.730178,270.720178,611.590178,281.250178,597.355178,281.250178ZM704.020178,308.745178C714.355178,308.745178,724.885178,304.845178,731.905178,297.825178L731.905178,306.405178L763.690178,306.405178L763.690178,246.540178C763.690178,219.630178,744.190178,203.250178,718.255178,203.250178C702.655178,203.250178,688.225178,207.735178,674.185178,214.755178L684.520178,235.425178C693.100178,230.940178,700.315178,228.015178,709.870178,228.015178C723.715178,228.015178,731.905178,235.815178,731.905178,246.540178L731.905178,247.905178C724.105178,244.785178,715.720178,243.030178,708.310178,243.030178C684.520178,243.030178,665.605178,256.875178,665.605178,276.570178C665.605178,295.680178,682.570178,308.745178,704.020178,308.745178ZM712.015178,288.465178C703.240178,288.465178,697.000178,283.395178,697.000178,275.595178C697.000178,267.795178,704.020178,262.140178,712.990178,262.140178C719.815178,262.140178,726.835178,263.505178,731.905178,265.455178L731.905178,276.180178C730.540178,283.785178,721.765178,288.465178,712.015178,288.465178ZM818.680178,306.405178L818.680178,170.100178L785.530178,170.100178L785.530178,306.405178L818.680178,306.405178Z"/></defs><g id="e7kj35rctbj63"><g id="e7kj35rctbj64" transform="matrix(1 0 0 1 -65.38120000000001 -77.40519999999999)"><g id="e7kj35rctbj65_to" transform="translate(519.795303,249.543408)"><path id="e7kj35rctbj65" d="M260.056538,462.982938C282.408138,462.982938,296.213538,451.675658,296.213538,433.531418C296.213538,416.570498,283.197018,410.785378,262.949098,406.446538C249.538138,403.553978,245.199298,401.713258,245.199298,396.191098C245.199298,391.720778,249.275178,388.302298,256.506578,388.302298C264.921298,388.302298,273.993418,391.589298,282.276658,397.900338L293.715418,381.859778C284.117378,373.839498,272.284178,369.500658,257.163978,369.500658C236.521618,369.500658,222.584738,381.070898,222.584738,398.426258C222.584738,416.570498,236.916058,421.829698,256.243618,426.168538C269.391618,429.324058,273.598978,430.507378,273.598978,435.898058C273.598978,440.762818,269.260138,444.181298,260.845418,444.181298C249.801098,444.181298,239.940098,439.973938,231.130938,432.742538L218.508858,447.862738C229.421698,457.723738,244.015978,462.982938,260.056538,462.982938ZM330.135378,461.405178L330.135378,422.224138C330.135378,415.518658,335.263098,410.390938,342.100058,410.390938C348.937018,410.390938,353.670298,415.650138,353.670298,423.144498L353.670298,461.405178L374.970058,461.405178L374.970058,418.148258C374.970058,402.765098,364.583138,391.852258,349.988858,391.852258C341.442658,391.852258,334.342738,395.402218,330.135378,401.055858L330.135378,369.500658L307.783778,369.500658L307.783778,461.405178L330.135378,461.405178ZM401.134578,385.146778C407.577098,385.146778,412.704818,379.756098,412.704818,373.313578C412.704818,367.134018,407.577098,361.743338,401.134578,361.743338C394.560578,361.743338,389.301378,367.134018,389.301378,373.313578C389.301378,379.756098,394.560578,385.146778,401.134578,385.146778ZM412.047418,461.405178L412.047418,393.430018L389.827298,393.430018L389.827298,461.405178L412.047418,461.405178ZM460.563538,462.982938C470.687498,462.982938,482.389218,458.644098,488.437298,452.464538L475.289298,439.185058C471.213418,442.735018,465.165338,444.970178,459.906138,444.970178C452.674738,444.970178,447.284058,440.368378,445.180378,433.531418L493.696498,433.531418C493.696498,407.629858,481.074418,391.852258,459.511698,391.852258C439.000818,391.852258,424.012098,406.578018,424.012098,427.220378C424.012098,448.125698,439.526738,462.982938,460.563538,462.982938ZM473.054138,419.988978L445.443338,419.988978C447.809978,413.677938,453.200658,409.733538,459.906138,409.733538C466.611618,409.733538,471.213418,413.809418,473.054138,419.988978ZM527.881298,461.405178L527.881298,369.500658L505.529698,369.500658L505.529698,461.405178L527.881298,461.405178ZM571.269698,462.982938C580.341818,462.982938,588.099138,459.170018,593.489818,452.727498L593.489818,461.405178L615.841418,461.405178L615.841418,369.500658L593.489818,369.500658L593.489818,402.107698C588.099138,395.665178,580.341818,391.852258,571.269698,391.852258C552.993978,391.852258,540.108938,406.578018,540.108938,427.351858C540.108938,448.257178,552.993978,462.982938,571.269698,462.982938ZM577.975178,444.444258C568.377138,444.444258,561.540178,437.344338,561.540178,427.351858C561.540178,417.490858,568.377138,410.390938,577.975178,410.390938C587.178778,410.390938,593.489818,417.490858,593.489818,427.351858C593.489818,437.344338,587.178778,444.444258,577.975178,444.444258ZM642.400378,385.146778C648.842898,385.146778,653.970618,379.756098,653.970618,373.313578C653.970618,367.134018,648.842898,361.743338,642.400378,361.743338C635.826378,361.743338,630.567178,367.134018,630.567178,373.313578C630.567178,379.756098,635.826378,385.146778,642.400378,385.146778ZM653.313218,461.405178L653.313218,393.430018L631.093098,393.430018L631.093098,461.405178L653.313218,461.405178ZM690.785018,461.405178L690.785018,421.829698L690.916498,422.224138C690.916498,415.518658,696.044218,410.390938,702.881178,410.390938C709.718138,410.390938,714.451418,415.650138,714.451418,423.144498L714.451418,461.405178L735.751178,461.405178L735.751178,418.148258C735.751178,402.765098,725.364258,391.852258,710.769978,391.852258C702.223778,391.852258,694.992378,395.402218,690.785018,401.187338L690.785018,393.430018L668.564898,393.430018L668.564898,461.405178L690.785018,461.405178ZM783.478418,484.019738C805.567058,484.019738,821.081698,471.660618,821.081698,454.173778L821.081698,393.430018L798.730098,393.430018L798.730098,401.713258C794.259778,395.928138,785.582098,391.852258,777.035898,391.852258C760.206458,391.852258,747.189938,405.131738,747.189938,424.064858C747.189938,442.997978,760.206458,456.408938,777.035898,456.408938C785.450618,456.408938,793.339418,452.858978,798.730098,446.679418L798.730098,453.121938C798.730098,460.353338,791.235738,465.481058,780.059938,465.481058C772.302618,465.481058,764.413818,462.982938,760.206458,459.432978L752.712098,474.947618C759.680538,480.206818,771.250778,484.019738,783.478418,484.019738ZM784.398778,437.870258C776.115538,437.870258,770.067458,432.085138,770.067458,424.064858C770.067458,416.044578,776.115538,410.390938,784.398778,410.390938C792.813498,410.390938,798.730098,416.044578,798.730098,424.064858C798.730098,432.085138,792.813498,437.870258,784.398778,437.870258Z" transform="translate(-519.795303,-422.881546)" fill="rgb(17,73,95)" stroke="none" stroke-width="1"/></g><rect id="e7kj35rctbj66" width="611.196452" height="181.194805" rx="0" ry="0" transform="matrix(1 0 0 1 212.81518554999874 165.00937300000004)" fill="rgb(255,255,255)" stroke="none" stroke-width="1"/><g id="e7kj35rctbj67_to" transform="translate(515.747681,239.422676)"><g id="e7kj35rctbj67" transform="translate(-515.747681,-239.422676)"><use id="e7kj35rctbj68" width="605.864990" height="138.645004" xlink:href="#e7kj35rctbj62" transform="matrix(1 0 0 1 0 189.30502604999998)" fill="rgb(27,135,176)" stroke="none" stroke-width="1"/></g></g><rect id="e7kj35rctbj69" width="611.196452" height="173.856447" rx="0" ry="0" transform="matrix(1 0 0 1 212.81518554999971 328.81916900060446)" fill="rgb(255,255,255)" stroke="none" stroke-width="1"/><line id="e7kj35rctbj610" x1="216.184748" y1="338.155178" x2="819.881252" y2="338.905178" fill="none" fill-rule="evenodd" stroke="rgb(255,193,7)" stroke-width="9.800000" stroke-dashoffset="603.700000" stroke-dasharray="603.700000"/><g id="e7kj35rctbj611"/><path id="e7kj35rctbj612" d="M163.597675,78L154.535885,142.190129L193.517508,90.393201L166.036513,136.972050C169.621171,134.015080,173.319167,131.149449,177.129570,128.381029C237.452007,84.554213,312.239585,75.048822,378.194068,96.174776C358.241616,90.465744,337.168305,87.409852,315.381252,87.409852C189.460329,87.409852,87.381252,189.488929,87.381252,315.409852C87.381252,351.990060,95.995815,386.558229,111.306900,417.196316C69.204282,339.336396,77.404813,244.693091,129.213913,175.533288L78.393201,205.517508L130.190129,166.535885L66,175.597675L128.771744,159.405178L66,143.212682L130.190129,152.274472L78.393201,113.292849L134.229350,146.229350L101.292849,90.393201L140.274472,142.190129L131.212682,78L147.405178,140.771744L163.597675,78Z" opacity="0" fill="rgb(27,135,176)" fill-rule="evenodd" stroke="none" stroke-width="1"/><path id="e7kj35rctbj613" d="M315,90C319.223626,90,323.420070,90.116376,327.586302,90.346097C222.397306,96.481671,139,183.300168,139,289.500000C139,399.680808,228.766908,489,339.500000,489C446.057582,489,533.200348,406.289882,539.620774,301.871397C539.873247,306.213788,540,310.592091,540,315C540,439.264069,439.264069,540,315,540C190.735931,540,90,439.264069,90,315C90,190.735931,190.735931,90,315,90Z" transform="matrix(0.58778500000000 0.80901700000000 -0.80901700000000 0.58778500000000 383.35069199999998 -124.99299999999999)" opacity="0" fill="rgb(17,73,95)" fill-rule="evenodd" stroke="none" stroke-width="1"/></g></g></svg>