<?xml version="1.0" encoding="UTF-8"?>
<svg width="1004px" height="440px" viewBox="0 0 1004 440" version="1.1" xmlns="http://www.w3.org/2000/svg" xmlns:xlink="http://www.w3.org/1999/xlink">
    <title>gps_light_logo</title>
    <defs>
        <filter color-interpolation-filters="auto" id="filter-1">
            <feColorMatrix in="SourceGraphic" type="matrix" values="0 0 0 0 0.000000 0 0 0 0 0.000000 0 0 0 0 0.000000 0 0 0 1.000000 0"></feColorMatrix>
        </filter>
    </defs>
    <g id="gps_light_logo" stroke="none" stroke-width="1" fill="none" fill-rule="evenodd">
        <g filter="url(#filter-1)" id="GPS-Text">
            <g transform="translate(504.685474, 397.549521) scale(1, -1) translate(-504.685474, -397.549521) translate(4.851968, 368.555041)">
                <path d="M32.7616968,34.2905657 L38.6499518,34.2905657 L35.2768581,17.3896066 C31.1661896,14.0118882 25.4630999,12.044 19.6350237,12.044 C6.87713804,12.044 -0.851968069,19.3574947 -0.851968069,30.1723772 C-0.851968069,44.4932851 9.3907563,56.044 25.5850004,56.044 C33.0687625,56.044 38.7733953,53.646361 42.1480319,49.4075949 L37.7302977,45.6588684 C34.847892,49.0381328 30.7989452,50.57627 25.3396564,50.57627 C13.0709156,50.57627 5.28163081,41.6658951 5.28163081,30.5418393 C5.28163081,22.7985937 10.3736752,17.5132759 20.3093338,17.5132759 C23.9293145,17.5132759 27.1187859,18.4346124 30.0011916,20.2169965 L32.7616968,34.2905657 Z" id="path32" fill="#FFFFFF"></path>
                <polygon id="path36" fill="#FFFFFF" points="54.2463926 57.044 60.1480319 57.044 51.0496713 12.044 45.1480319 12.044"></polygon>
                <path d="M90.2482929,30.8303387 C90.2482929,36.5630645 86.7812783,39.9189186 80.6382668,39.9189186 C73.3997644,39.9189186 68.0477709,34.2475711 68.0477709,26.2561269 C68.0477709,20.5832449 71.5147856,17.1675469 77.657797,17.1675469 C84.95597,17.1675469 90.2482929,22.8404289 90.2482929,30.8303387 M62.1480319,26.010614 C62.1480319,36.9313338 70.055151,45.044 81.0636111,45.044 C90.2482929,45.044 96.1480319,39.6150965 96.1480319,31.1356954 C96.1480319,20.1551318 88.3021135,12.044 77.2936534,12.044 C68.1089715,12.044 62.1480319,17.5941256 62.1480319,26.010614" id="path40" fill="#FFFFFF"></path>
                <path d="M131.377554,30.9845395 C131.377554,36.7643202 127.98562,40.1477197 121.975641,40.1477197 C114.834019,40.1477197 109.657803,34.429821 109.657803,26.3727819 C109.657803,20.6533361 113.049737,17.2096017 119.059716,17.2096017 C126.141462,17.2096017 131.377554,22.9290474 131.377554,30.9845395 M137.148032,31.2924025 C137.148032,20.099492 129.531899,12.044 119.29772,12.044 C113.703874,12.044 109.717679,14.2562823 107.75377,18.3157428 L106.563749,12.412198 L101.148032,12.412198 L109.955683,58.044 L115.667782,58.044 L112.394103,41.2554078 C115.191774,43.8389822 118.821712,45.3148684 123.225537,45.3148684 C131.257803,45.3148684 137.148032,40.0873847 137.148032,31.2924025" id="path44" fill="#FFFFFF"></path>
                <path d="M169.638614,30.8303387 C169.638614,36.5630645 166.246822,39.9189186 160.237093,39.9189186 C153.155641,39.9189186 147.919767,34.2475711 147.919767,26.2561269 C147.919767,20.5832449 151.311559,17.1675469 157.321289,17.1675469 C164.461117,17.1675469 169.638614,22.8404289 169.638614,30.8303387 M178.148032,44.7371089 L171.900308,12.4092004 L166.424943,12.4092004 L167.198799,16.3742334 C164.401244,13.6290926 160.593336,12.044 156.071445,12.044 C148.039513,12.044 142.148032,17.2887689 142.148032,26.010614 C142.148032,37.113934 149.763848,45.044 159.999098,45.044 C165.413094,45.044 169.340747,43.0307944 171.364447,39.2483616 L172.434673,44.7371089 L178.148032,44.7371089 Z" id="path48" fill="#FFFFFF"></path>
                <polygon id="path52" fill="#FFFFFF" points="193.247001 57.044 199.148032 57.044 190.050609 12.044 184.148032 12.044"></polygon>
                <path d="M251.212243,41.8979855 C251.212243,47.0593454 247.649276,49.7002927 241.358087,49.7002927 L231.385961,49.7002927 L227.645294,30.4116418 L237.796613,30.4116418 C246.284418,30.4116418 251.212243,34.3429291 251.212243,41.8979855 M257.148032,42.4496638 C257.148032,31.454731 249.668191,25.0663892 237.677151,25.0663892 L226.576106,25.0663892 L224.083821,12.044 L218.148032,12.044 L226.458136,55.044 L241.892681,55.044 C251.567644,55.044 257.148032,50.4358637 257.148032,42.4496638" id="path56" fill="#FFFFFF"></path>
                <path d="M287.638614,30.8303387 C287.638614,36.5630645 284.246822,39.9189186 278.237093,39.9189186 C271.155641,39.9189186 265.919767,34.2475711 265.919767,26.2561269 C265.919767,20.5832449 269.311559,17.1675469 275.321289,17.1675469 C282.462613,17.1675469 287.638614,22.8404289 287.638614,30.8303387 M296.148032,44.7371089 L289.900308,12.4092004 L284.424943,12.4092004 L285.198799,16.3742334 C282.402741,13.6290926 278.594832,12.044 274.072941,12.044 C266.039513,12.044 260.148032,17.2887689 260.148032,26.010614 C260.148032,37.113934 267.765345,45.044 277.999098,45.044 C283.413094,45.044 287.340747,43.0307944 289.364447,39.2483616 L290.43617,44.7371089 L296.148032,44.7371089 Z" id="path60" fill="#FFFFFF"></path>
                <path d="M324.148032,45.044 L323.091239,39.4829694 C322.564319,39.5416491 322.211563,39.5416491 321.625604,39.5416491 C315.405877,39.5416491 311.29826,36.1908874 309.890187,28.8950438 L306.780324,13.044 L301.148032,13.044 L307.30872,44.7445831 L312.706333,44.7445831 L311.826656,40.0186098 C314.642802,43.6086041 318.574779,45.044 324.148032,45.044" id="path64" fill="#FFFFFF"></path>
                <path d="M335.799727,22.5121122 C335.681825,21.9132465 335.622128,21.3745683 335.622128,20.8358901 C335.622128,18.3832492 336.928005,16.8890944 339.775564,16.8890944 C341.317245,16.8890944 342.978321,17.4262679 344.284199,18.3832492 L345.470681,14.0166456 C343.335012,12.520986 340.665053,12.044 338.172693,12.044 C333.249162,12.044 329.867313,15.0323098 329.867313,19.9977791 C329.867313,20.7170198 329.92701,21.5536262 330.104609,22.3917372 L333.486458,39.3781564 L328.148032,39.3781564 L329.037521,44.1043804 L334.435645,44.1043804 L335.799727,51.044 L341.494845,51.044 L340.130762,44.1043804 L349.148032,44.1043804 L348.200338,39.3781564 L339.181576,39.3781564 L335.799727,22.5121122 Z" id="path68" fill="#FFFFFF"></path>
                <path d="M386.148032,34.5172685 C386.148032,33.3797314 386.027566,32.1233248 385.789646,30.8082357 L382.256983,13.044 L376.510758,13.044 L380.043421,30.8082357 C380.222615,31.7652113 380.341575,32.6635044 380.341575,33.4399186 C380.341575,37.567252 377.947314,39.8995039 372.978095,39.8995039 C366.814758,39.8995039 362.622544,36.6117811 361.246221,29.7910729 L357.894256,13.044 L352.148032,13.044 L358.433341,44.744569 L363.94014,44.744569 L363.161629,40.6774227 C366.09648,43.6672191 370.107995,45.044 374.654077,45.044 C381.838364,45.044 386.148032,41.2762848 386.148032,34.5172685" id="path72" fill="#FFFFFF"></path>
                <path d="M400.358198,31.0129389 L420.775901,31.0129389 C421.07477,36.9297993 417.3727,40.1644315 411.761774,40.1644315 C406.029198,40.1644315 401.789464,36.6244427 400.358198,31.0129389 M399.76046,26.7440837 L399.76046,26.3773489 C399.76046,20.4604884 402.98494,17.1675469 409.791342,17.1675469 C413.730704,17.1675469 417.312626,18.6314175 419.583429,20.8870671 L422.029949,16.6780556 C418.924115,13.6904708 414.149722,12.044 409.31225,12.044 C399.940682,12.044 394.148032,17.5327473 394.148032,26.0719922 C394.148032,37.0525558 401.670818,45.044 412.000569,45.044 C420.537106,45.044 426.148032,39.7976967 426.148032,31.0743171 C426.148032,29.5506028 425.970813,28.0851978 425.732018,26.7440837 L399.76046,26.7440837 Z" id="path76" fill="#FFFFFF"></path>
                <path d="M453.148032,45.044 L452.094124,39.4829694 C451.565693,39.5416491 451.211438,39.5416491 450.625442,39.5416491 C444.406792,39.5416491 440.298911,36.1908874 438.892224,28.8950438 L435.780685,13.044 L430.148032,13.044 L436.309115,44.7445831 L441.707074,44.7445831 L440.827341,40.0186098 C443.643668,43.6086041 447.574421,45.044 453.148032,45.044" id="path80" fill="#FFFFFF"></path>
                <path d="M452.148032,15.7650546 L454.743062,20.4006447 C457.218134,18.3874391 461.504716,17.1061687 465.848999,17.1061687 C471.405004,17.1061687 474.239949,18.8753959 474.239949,21.8660497 C474.239949,28.146576 456.493833,23.6337424 456.493833,34.5529278 C456.493833,40.957745 462.229016,45.044 470.981357,45.044 C475.208719,45.044 479.553002,43.9453299 482.148032,42.1162589 L479.853655,37.4806689 C477.258626,39.3112743 473.696344,40.0416751 470.437752,40.0416751 C465.065479,40.0416751 462.289754,38.0300039 462.289754,35.2234848 C462.289754,28.6974456 479.973613,33.2716574 479.973613,22.5350723 C479.973613,15.8264328 473.998515,12.044 465.308431,12.044 C459.873901,12.044 454.743062,13.6290926 452.148032,15.7650546" id="path84" fill="#FFFFFF"></path>
                <path d="M508.380497,53.9718238 C508.380497,56.2219151 510.05184,58.044 512.501739,58.044 C514.593924,58.044 516.148032,56.4649617 516.148032,54.6398196 C516.148032,52.1497389 514.413563,50.448413 511.965166,50.448413 C509.872982,50.448413 508.380497,52.0289799 508.380497,53.9718238 M507.421579,44.2499615 L513.158553,44.2499615 L506.885006,12.044 L501.148032,12.044 L507.421579,44.2499615 Z" id="path88" fill="#FFFFFF"></path>
                <path d="M552.148032,34.5172685 C552.148032,33.3797314 552.029072,32.1233248 551.791152,30.8082357 L548.256983,13.044 L542.510758,13.044 L546.043421,30.8082357 C546.222615,31.7652113 546.341575,32.6635044 546.341575,33.4399186 C546.341575,37.567252 543.94882,39.8995039 538.979601,39.8995039 C532.814758,39.8995039 528.624049,36.6117811 527.246221,29.7910729 L523.894256,13.044 L518.148032,13.044 L524.434847,44.744569 L529.941645,44.744569 L529.161629,40.6774227 C532.09648,43.6672191 536.107995,45.044 540.654077,45.044 C547.839869,45.044 552.148032,41.2762848 552.148032,34.5172685" id="path92" fill="#FFFFFF"></path>
                <path d="M574.148032,17.2674831 L576.78798,22.1833388 C579.96346,19.1719907 585.181505,17.2674831 590.399551,17.2674831 C597.17592,17.2674831 601.734732,19.910915 601.734732,24.579432 C601.734732,33.5531874 580.204826,28.9449592 580.204826,42.709355 C580.204826,50.9426404 587.402078,56.044 597.655636,56.044 C602.814848,56.044 607.732694,54.7532014 611.148032,52.4189429 L608.749451,47.3794179 C605.632804,49.6518418 601.614049,50.8205169 597.355436,50.8205169 C590.459892,50.8205169 586.082105,47.8091688 586.082105,43.2612294 C586.082105,34.2287311 607.61201,38.5308777 607.61201,25.4404797 C607.61201,17.083525 600.295584,12.044 589.859493,12.044 C583.443665,12.044 577.207354,14.3179697 574.148032,17.2674831" id="path96" fill="#FFFFFF"></path>
                <path d="M648.148032,33.8162742 C648.148032,32.6628975 648.027571,31.388996 647.789662,30.0555948 L644.257155,12.044 L638.511185,12.044 L642.043692,30.0555948 C642.221371,31.0258959 642.341832,31.9366973 642.341832,32.7239227 C642.341832,36.9087274 639.949183,39.2734549 634.980184,39.2734549 C628.812602,39.2734549 624.625091,35.939952 623.247323,29.0242685 L619.894002,12.044 L614.148032,12.044 L623.009414,57.044 L628.755384,57.044 L625.462292,40.4268316 C628.395508,43.2156843 632.226154,44.4895859 636.654586,44.4895859 C643.84006,44.4895859 648.148032,40.6694069 648.148032,33.8162742" id="path100" fill="#FFFFFF"></path>
                <path d="M662.379718,53.9718238 C662.379718,56.2219151 664.052732,58.044 666.501374,58.044 C668.593768,58.044 670.148032,56.4649617 670.148032,54.6398196 C670.148032,52.1497389 668.414892,50.448413 665.964747,50.448413 C663.872353,50.448413 662.379718,52.0289799 662.379718,53.9718238 M661.422208,44.2499615 L667.159757,44.2499615 L660.885581,12.044 L655.148032,12.044 L661.422208,44.2499615 Z" id="path104" fill="#FFFFFF"></path>
                <path d="M678.358198,31.0129389 L698.775901,31.0129389 C699.07477,36.9297993 695.3727,40.1644315 689.761774,40.1644315 C684.029198,40.1644315 679.789464,36.6244427 678.358198,31.0129389 M677.76046,26.7440837 L677.76046,26.3773489 C677.76046,20.4604884 680.98494,17.1675469 687.78984,17.1675469 C691.730704,17.1675469 695.312626,18.6314175 697.583429,20.8870671 L700.029949,16.6780556 C696.924115,13.6904708 692.149722,12.044 687.31225,12.044 C677.940682,12.044 672.148032,17.5327473 672.148032,26.0719922 C672.148032,37.0525558 679.670818,45.044 690.000569,45.044 C698.537106,45.044 704.148032,39.7976967 704.148032,31.0743171 C704.148032,29.5506028 703.970813,28.0851978 703.732018,26.7440837 L677.76046,26.7440837 Z" id="path108" fill="#FFFFFF"></path>
                <polygon id="path112" fill="#FFFFFF" points="718.247609 57.044 724.148032 57.044 715.050001 12.044 709.148032 12.044"></polygon>
                <path d="M753.953265,30.9845395 C753.953265,36.7643202 750.52095,40.1477197 744.443618,40.1477197 C737.280723,40.1477197 731.984633,34.429821 731.984633,26.3727819 C731.984633,20.6533361 735.415434,17.2096017 741.49428,17.2096017 C748.716222,17.2096017 753.953265,22.9290474 753.953265,30.9845395 M765.148032,58.044 L756.239456,12.412198 L750.704148,12.412198 L751.486904,16.4097766 C748.65566,13.6421032 744.803958,12.044 740.231576,12.044 C732.105755,12.044 726.148032,17.3318187 726.148032,26.1252538 C726.148032,37.3197113 733.851437,45.3148684 744.202887,45.3148684 C749.679147,45.3148684 753.712534,43.2851381 755.757993,39.4097766 L759.368964,58.044 L765.148032,58.044 Z" id="path116" fill="#FFFFFF"></path>
                <path d="M775.37894,53.9718238 C775.37894,56.2219151 777.053624,58.044 779.502512,58.044 C781.595116,58.044 783.148032,56.4649617 783.148032,54.6398196 C783.148032,52.1497389 781.416222,50.448413 778.965831,50.448413 C776.874731,50.448413 775.37894,52.0289799 775.37894,53.9718238 M774.42434,44.2499615 L780.162464,44.2499615 L773.886156,12.044 L768.148032,12.044 L774.42434,44.2499615 Z" id="path120" fill="#FFFFFF"></path>
                <path d="M818.148032,34.5172685 C818.148032,33.3797314 818.027571,32.1233248 817.788156,30.8082357 L814.257155,13.044 L808.511185,13.044 L812.04068,30.8082357 C812.221371,31.7652113 812.341832,32.6635044 812.341832,33.4399186 C812.341832,37.567252 809.946172,39.8995039 804.980184,39.8995039 C798.812602,39.8995039 794.623586,36.6117811 793.247323,29.7910729 L789.894002,13.044 L784.148032,13.044 L790.433063,44.744569 L795.939617,44.744569 L795.161141,40.6774227 C798.094356,43.6672191 802.105694,45.044 806.654586,45.044 C813.837049,45.044 818.148032,41.2762848 818.148032,34.5172685" id="path124" fill="#FFFFFF"></path>
                <path d="M853.327412,31.5138131 C853.327412,36.716428 849.846859,39.8999108 843.847208,39.8999108 C836.587252,39.8999108 831.366423,34.5740842 831.366423,27.2275855 C831.366423,21.9618246 834.907349,18.7783419 840.846627,18.7783419 C848.108092,18.7783419 853.327412,24.1041684 853.327412,31.5138131 M862.148032,44.7375109 L856.687217,16.697604 C854.408104,4.94166584 848.22884,0.0440000189 837.666434,0.0440000189 C831.604899,0.0440000189 826.568211,1.6965772 823.148032,4.63517669 L826.326715,9.1647475 C828.78695,6.83912631 833.108208,5.24661485 838.087542,5.24661485 C845.587484,5.24661485 849.366887,8.73812693 850.74643,15.7781365 L851.226402,18.1052978 C848.346569,15.2883699 844.446418,13.6357927 839.707071,13.6357927 C831.307558,13.6357927 825.547893,18.6566703 825.547893,26.8610306 C825.547893,37.1461288 833.046325,45.044 843.667595,45.044 C848.886915,45.044 853.44665,43.0864738 855.54766,38.798706 L856.687217,44.7375109 L862.148032,44.7375109 Z" id="path128" fill="#FFFFFF"></path>
                <path d="M873.148032,16.0833112 C873.148032,14.8034446 872.693903,13.8286001 871.658686,12.1839333 L866.225422,3.04400002 L862.148032,3.04400002 L866.546079,12.1839333 C865.317165,12.8537557 864.477271,14.135155 864.477271,15.5974217 C864.477271,18.216933 866.546079,20.044 869.069014,20.044 C871.399882,20.044 873.148032,18.4008659 873.148032,16.0833112" id="path132" fill="#FFFFFF"></path>
                <polygon id="path136" fill="#FFFFFF" points="906.89646 55.044 913.148032 55.044 904.398032 12.044 898.148032 12.044"></polygon>
                <path d="M950.148032,34.5172685 C950.148032,33.3797314 950.029072,32.1233248 949.789646,30.8082357 L946.256983,13.044 L940.510758,13.044 L944.041916,30.8082357 C944.221109,31.7652113 944.34308,32.6635044 944.34308,33.4399186 C944.34308,37.567252 941.947314,39.8995039 936.979601,39.8995039 C930.813252,39.8995039 926.622544,36.6117811 925.246221,29.7910729 L921.894256,13.044 L916.148032,13.044 L922.433341,44.744569 L927.94014,44.744569 L927.161629,40.6774227 C930.09648,43.6672191 934.106489,45.044 938.655583,45.044 C945.838364,45.044 950.148032,41.2762848 950.148032,34.5172685" id="path140" fill="#FFFFFF"></path>
                <path d="M957.148032,26.0121484 C957.148032,36.9313338 964.998034,45.044 975.986215,45.044 C982.145611,45.044 986.673641,42.7269722 989.148032,38.0300039 L984.260008,35.284863 C982.569402,38.3952043 979.669701,39.9189186 975.562424,39.9189186 C968.318488,39.9189186 963.003635,34.2475711 963.003635,26.2561269 C963.003635,20.5847793 966.445606,17.1675469 972.606522,17.1675469 C976.410006,17.1675469 979.911216,18.6927957 982.145611,21.7432932 L986.372886,18.6927957 C983.412426,14.543628 978.100612,12.044 972.365006,12.044 C963.065913,12.044 957.148032,17.59566 957.148032,26.0121484" id="path144" fill="#FFFFFF"></path>
                <path d="M991.148032,15.2489587 C991.148032,18.0737521 993.297487,20.044 995.916714,20.044 C998.334851,20.044 1000.14803,18.2720992 1000.14803,15.7729256 C1000.14803,12.9481323 997.934363,11.044 995.446943,11.044 C993.027116,11.044 991.148032,12.8820165 991.148032,15.2489587" id="path148" fill="#FFFFFF"></path>
            </g>
        </g>
        <path d="M895.711166,90.7353694 C890.280527,86.9171952 884.740969,83.2305768 878.326987,80.4051891 C870.561481,76.9862711 862.720805,73.1757455 854.51195,69.9572205 C848.835859,68.2944179 843.158234,66.6316153 837.483677,64.9688127 C829.733511,62.5197354 821.067501,59.3884043 812.240413,58.3206617 C812.268026,72.4552487 812.680693,86.8850712 810.572869,99.5220651 C810.293667,103.321883 810.017533,107.1217 809.739864,110.919988 C808.825554,117.133699 807.914311,123.34894 807,129.562652 C814.042955,130.342807 822.572432,134.295597 828.671929,136.686545 C837.716857,140.233959 846.881443,143.403533 854.86939,148.084468 C859.812191,150.984812 864.23494,154.377724 868.800358,157.584012 C872.26891,160.020851 875.287977,162.687148 878.564769,165.183647 C879.557318,165.896495 880.549867,166.609343 881.542415,167.320662 C882.785019,166.401302 883.051949,163.48719 883.565865,161.858041 C884.75631,158.019981 885.948289,154.180391 887.138734,150.34233 C889.801895,142.55607 892.280966,134.638253 894.401063,126.356364 C895.235601,122.16188 896.068606,117.965866 896.901611,113.771381 C898.317565,107.788657 900.04954,100.663234 899.998916,93.8238685 C898.940401,92.4976036 897.113314,91.722037 895.711166,90.7353694 M803.94006,150.320662 L803.465093,150.320662 C802.999289,154.201949 801.765291,157.902711 800.738996,161.364813 C799.031558,167.121725 797.594438,172.95054 795.879364,178.464201 C789.352003,199.449466 782.998745,219.704982 773,237.244973 C778.453722,238.987498 783.907444,240.730023 789.358112,242.469489 C798.211438,245.930061 806.528707,249.930678 814.13429,254.581492 C818.734293,257.394928 823.945186,260.148699 827.175268,264.320662 C828.855216,263.468523 830.396186,260.685684 831.559932,259.213946 C834.554821,255.430571 837.755886,251.820071 840.688159,247.932664 C850.124885,235.429014 858.151982,221.681577 865.581933,207.083531 C867.819319,202.686677 869.850528,198.123067 871.866466,193.427887 C872.576626,191.723609 873.288313,190.02239 874,188.321172 C870.672176,183.936556 863.152118,179.507575 858.469645,176.209169 C842.368107,164.857513 824.9669,156.940421 803.94006,150.320662 M788.644129,52.753382 C781.985024,51.799049 775.324397,50.8431767 768.666815,49.8873045 C760.946335,49.2500563 753.22281,48.6128081 745.500807,47.97556 C743.175526,47.8955191 740.851768,47.8154783 738.526487,47.7354375 C734.463718,47.1105033 729.764428,47.376793 725.525016,47.3783322 C722.610421,47.4168134 719.694302,47.458373 716.778184,47.4968542 C713.980842,47.458373 711.183501,47.4168134 708.386159,47.3783322 C703.776713,47.7354375 699.167266,48.0956212 694.556297,48.4527265 C692.311724,48.6512893 690.065627,48.8513914 687.821054,49.0499542 C686.978958,49.6810454 687.245444,51.9006393 686.992663,53.1135658 C686.1795,57.0294096 686.082042,61.4116452 685.338927,65.7769491 C684.186185,72.5250071 684.595812,79.4993343 683.447638,86.6860776 C681.912678,96.2740458 681.953793,109.003617 682.028409,119.5413 C686.203864,118.985632 690.380842,118.426886 694.556297,117.869678 C700.662633,117.631095 706.772015,117.390973 712.878352,117.152389 C716.344193,117.072349 719.811556,116.993847 723.280442,116.913806 C726.863537,116.993847 730.4512,117.072349 734.035817,117.152389 C737.54125,117.270911 741.049729,117.390973 744.555162,117.511034 C754.739496,119.207284 765.350207,119.027192 774.69549,121.09594 C780.08003,122.285777 785.884857,122.699835 790.535418,124.320662 C794.153537,113.587494 794.622552,101.087271 797.034631,89.4336331 C798.568068,82.0313953 799.268545,74.7215122 800.699956,66.9729439 C801.369978,63.3433999 802.030863,59.1751196 802,55.1438323 C797.547807,54.3465024 793.093684,53.5507118 788.644129,52.753382 M679.348347,224.359151 C675.393149,212.210796 671.856843,200.367439 668.625601,187.375405 C666.648001,179.418126 666.379363,171.211992 664.857083,162.640163 C663.591298,155.506836 662.978136,147.484308 663.090447,139.437502 C663.049469,139.398049 663.011526,139.358597 662.972065,139.320662 C659.507092,139.613521 656.498956,140.728815 653.428593,141.557319 C643.844142,144.142979 635.4162,146.925903 627.158243,150.510016 C623.115016,152.276278 619.068754,154.042539 615.025527,155.8088 C614.785727,156.151733 616.304972,160.743405 616.67378,161.697854 C618.95796,167.608152 621.050907,173.579146 623.741838,179.012978 C629.621515,190.886683 634.344684,203.065387 640.942246,214.228946 C645.694252,221.570158 650.446258,228.912888 655.195228,236.252583 C656.884459,238.609115 658.57369,240.965647 660.261403,243.320662 C667.174653,239.704682 674.535632,235.818604 683,233.780728 C681.781265,230.639696 680.564047,227.498665 679.348347,224.359151 M688.250073,201.603716 C689.157212,207.183043 690.065875,212.765407 690.971489,218.346253 C692.038711,222.629864 693.102884,226.914993 694.167057,231.198604 C696.020975,230.922144 697.876417,230.648722 699.730334,230.372262 C702.726179,230.136815 705.725073,229.901368 708.723968,229.664403 C710.972757,229.626427 713.220022,229.585414 715.468812,229.547439 C717.953915,229.507945 720.440542,229.46845 722.924121,229.428956 C730.570005,229.430475 737.29198,229.854279 743.989562,230.963157 C749.063441,231.801651 755.61466,231.490254 759.845434,233.320662 L760.438505,233.320662 C763.228528,223.071896 767.508089,214.026186 770.616755,204.198186 C774.03339,193.390425 776.631314,182.137592 779.965621,170.948559 C782.180869,163.508444 784.954122,153.908296 786,145.834753 C778.742889,144.38106 771.482729,142.925847 764.224094,141.472154 C757.836007,140.528848 751.443346,139.584024 745.053735,138.640718 C734.736746,136.761702 723.521765,135.645229 711.562779,135.576873 C703.970255,135.532822 695.244952,134.843191 688.132678,135.929284 C686.201006,136.126755 684.266285,136.322707 682.333088,136.520179 C681.839117,137.097403 682.01902,142.325838 682.096775,143.594212 C682.452007,149.881398 682.80724,156.170103 683.160948,162.458807 C684.36081,176.293958 685.815282,189.217702 688.250073,201.603716 M961.542555,187.023224 C959.498048,195.585261 958.142666,203.163172 955.152898,210.753252 C948.161019,228.516169 939.187141,245.082013 928.644436,259.396692 C923.910509,265.824683 918.243519,271.416093 913.259556,277.579421 C911.131195,279.743886 908.999785,281.908352 906.869899,284.071297 C897.402047,295.786486 885.013034,304.722703 872.550839,313.470308 C868.370348,316.383135 864.188332,319.295961 860.007841,322.207266 C853.357475,326.143765 846.060672,328.951638 838.587015,332.124565 C813.096994,342.943852 785.091361,350.707333 747.938044,350.305773 C742.652207,349.952888 737.364846,349.598481 732.080534,349.244075 C721.699438,347.522237 711.771152,346.486396 701.902326,344.049661 C691.534951,341.488199 680.909916,339.460629 671.371932,335.784231 C654.820723,329.403392 640.664682,321.991276 627.348704,312.644374 C620.231806,307.647698 613.2445,302.669274 607.348818,296.469442 C605.400362,294.419055 601.843437,291.395192 601.668107,287.851126 C601.709271,287.772031 601.747387,287.692936 601.787027,287.615362 C602.191049,287.361345 602.340462,287.259435 603.089047,287.259435 C606.96614,291.554903 611.440882,295.194795 616.106201,298.711481 C636.92328,314.410322 659.868719,323.956483 689.359327,331.29711 C697.36355,333.291217 705.328133,333.485912 714.091614,334.958297 C719.333237,335.838989 725.271608,335.09215 730.897434,336.021516 C737.430404,337.098425 749.137915,337.317458 755.748641,336.25728 L767.463774,335.312703 C777.747295,333.368791 787.343216,331.633264 796.693673,328.817785 C804.109395,326.339981 811.528166,323.860656 818.942364,321.381332 C823.06492,319.632115 827.042638,317.446354 831.012733,315.713869 C834.5971,314.150221 838.157074,312.905996 841.42737,310.990984 C850.442413,305.714433 858.885725,299.771659 867.107968,293.754353 C876.940203,286.555185 886.219003,278.679146 893.852745,269.313991 C894.956566,268.250771 896.061911,267.189072 897.167256,266.127374 C901.978938,260.151136 907.545303,254.815264 912.195376,248.651937 C919.449489,239.03885 924.625553,228.059852 930.893241,217.365292 C934.886205,210.553994 937.851579,203.671206 940.951119,195.760182 C941.661589,193.989671 942.372059,192.217638 943.08253,190.447126 C945.232235,182.096517 942.962085,169.576688 941.188959,162.46422 C936.519067,143.735431 929.592745,128.721066 919.769658,115.35857 C916.673167,111.14676 913.473002,106.137916 909.35502,102.960426 C909.124803,124.019475 905.913966,141.688087 900.952873,158.451668 C899.573097,163.173033 898.190272,167.897439 896.810496,172.618804 C895.982631,174.862365 895.153241,177.105925 894.325376,179.349486 C896.32262,181.964185 899.121811,183.924829 901.071792,186.667297 C906.174675,193.854297 910.173738,201.912863 912.669531,211.69783 C913.598021,215.345327 913.787073,218.830071 914.444181,222.914112 C914.325261,225.432984 914.206342,227.951857 914.088946,230.470729 C912.437789,240.731787 910.646368,248.11044 906.042034,255.028213 C905.122692,256.407812 900.253075,263.915755 897.995122,261.285846 C897.953957,261.088108 897.915842,260.891892 897.876202,260.694154 C910.533547,244.548122 902.169514,220.369382 892.66812,207.8024 C890.766927,205.286569 888.728518,201.293792 885.804308,199.892897 L885.567993,199.655612 C883.242957,204.652288 881.422568,209.877123 878.704181,214.533082 C872.076685,225.878655 865.135117,237.024969 857.28488,247.235832 C854.603084,250.305327 851.919764,253.376343 849.237968,256.444318 C846.28479,260.108547 842.962657,263.883813 839.297485,266.834666 C837.52131,268.486535 835.746659,270.139925 833.972008,271.793315 C834.642838,273.131847 835.312144,274.470378 835.984499,275.807388 C836.975498,278.087454 837.644803,280.7128 838.23178,283.364005 C842.241514,301.411359 832.576987,311.812355 822.37427,318.193194 C819.416519,320.042801 810.441117,325.263072 805.21474,322.797437 C805.176625,322.60122 805.13546,322.405004 805.097345,322.207266 C805.992293,321.063431 807.869093,320.864172 809.120801,320.080827 C810.264262,319.137771 811.409247,318.193194 812.552707,317.248617 C819.012496,312.04964 823.822653,300.504809 820.363304,289.385874 C819.765656,287.464777 819.283878,285.420475 817.995579,284.19146 L817.995579,283.954175 C813.382097,286.602337 807.029031,292.817381 800.482338,292.809776 L799.771868,292.100963 C800.014282,289.948665 802.395729,289.022341 803.7938,287.968248 C806.9528,285.586271 811.331491,282.297743 813.382097,278.876883 C811.174456,275.919946 807.818781,273.548616 804.86103,271.321787 C796.657082,265.141728 787.666434,259.668961 777.286862,255.618383 C772.671856,254.281373 768.055325,252.942842 763.441843,251.604311 C761.450697,256.508202 757.46993,260.479685 754.801856,264.826869 C753.475441,266.989814 751.860875,270.514106 749.476379,271.557551 C748.868058,271.831342 748.355788,271.551467 747.938044,271.321787 C747.549267,268.891136 749.297999,266.608028 750.067929,264.709748 C751.84258,259.830193 753.618755,254.949118 755.393406,250.069563 C751.725185,249.558488 748.055439,249.045891 744.388742,248.534815 L729.593889,247.11871 L721.665896,246.881425 C714.408734,245.751279 706.653023,246.724756 699.29981,246.762783 C700.68111,251.367026 702.060886,255.97279 703.442186,260.577033 C704.073376,261.994659 704.704566,263.410764 705.334232,264.826869 L705.334232,264.945512 C703.492498,265.996563 701.159839,263.49138 700.127675,262.466187 C697.022036,259.378439 691.85512,253.1132 690.423507,248.651937 C689.098618,248.154551 686.031095,249.480914 684.625401,249.952442 C680.972426,251.17233 677.761589,252.383093 674.448602,253.84635 C672.949907,254.596232 671.451211,255.343072 669.950991,256.091432 C671.045664,258.649852 677.532896,265.512866 679.774079,267.307715 C680.944982,268.243166 682.984916,269.113211 683.796011,270.37721 C682.835504,272.100569 678.787654,270.912623 677.406354,270.37721 C673.463702,268.847026 669.935745,266.388996 666.756925,264.000935 C665.37715,262.965094 664.084277,261.337562 662.378234,260.694154 C656.37278,264.752337 651.63123,269.645581 648.53169,276.634843 C647.777006,278.335386 646.545118,280.045056 646.165489,282.065021 C648.527116,285.230343 653.297633,288.538644 657.525388,289.738759 C657.644308,289.974523 657.761703,290.211808 657.880623,290.447572 L657.880623,290.566215 C653.98371,292.811297 648.281653,290.076434 645.572414,288.441297 C645.714204,295.339295 650.60364,304.280075 654.093482,308.157252 L654.093482,308.630301 C653.976086,308.709396 653.857167,308.78697 653.739771,308.866065 C651.23788,309.845627 647.066536,306.09774 645.929174,304.970635 C641.129689,300.214287 634.715639,291.773935 634.922986,282.300785 C630.869038,280.49681 627.424935,276.602901 623.916798,274.036876 C610.791397,264.432915 600.158739,252.334419 593.265959,236.491077 C590.747297,230.70193 587.204094,224.426044 587.350457,216.303594 C587.664528,216.066308 587.981647,215.830544 588.295718,215.59478 C588.414638,215.555233 588.532033,215.515685 588.650953,215.476138 C590.268568,217.097586 590.997334,219.843096 592.200254,221.850893 C594.64726,225.472532 597.09274,229.094171 599.538221,232.71429 C608.021173,244.561812 618.298596,257.575985 629.59751,266.598902 C631.687755,268.486535 633.779526,270.37721 635.869771,272.266364 C636.656472,270.416758 637.447747,268.56563 638.235972,266.716023 C640.463433,262.373402 646.53902,252.606688 650.661576,250.659734 C650.740856,250.542612 650.820136,250.422449 650.897891,250.305327 C647.032995,245.898822 643.166574,241.489274 639.301677,237.082769 C630.926973,226.435362 622.361692,215.006131 616.580356,201.899173 C612.93043,193.62918 609.464983,184.813127 606.638348,175.806942 C605.574168,171.242246 604.509987,166.67603 603.442757,162.111334 L603.442757,161.87557 C601.866307,162.820147 600.288331,163.764724 598.710356,164.709302 C593.921543,167.699702 589.213536,170.626218 584.863812,174.03643 C583.320903,175.245671 581.166623,178.385135 579.657255,179.113722 C579.3813,179.151749 579.10382,179.191296 578.82939,179.230844 C578.55191,178.915985 578.275955,178.601126 578,178.286267 C578.280529,174.795438 581.133082,172.261355 582.851322,170.020837 C586.203948,165.6554 590.152698,161.387311 594.450584,157.978619 C596.894541,155.931275 599.341546,153.886973 601.787027,151.839629 C601.431792,149.439399 601.078081,147.037648 600.721322,144.637418 C599.288184,137.240513 599.372038,128.88534 598.118806,120.788748 C597.649224,117.754237 598.063919,109.456865 600.010851,109.099416 C601.349462,110.165678 601.896799,116.625612 602.495972,118.780951 C604.311787,124.682657 606.126078,130.587404 607.940369,136.490631 C608.926794,139.245267 609.911694,142.001425 610.899644,144.756061 C613.186565,143.300408 615.475011,141.843235 617.763456,140.387582 C624.386379,136.536263 631.722821,133.063687 638.944918,130.115876 C644.546349,128.304296 650.149306,126.494237 655.750737,124.684178 C658.194693,124.133555 660.641699,123.582932 663.087179,123.030788 L663.325019,123.030788 C662.84629,118.954352 663.536941,114.091529 664.152885,110.281278 C664.88165,105.762215 664.697172,101.115382 665.45338,96.9385564 C665.81014,93.8295135 666.16385,90.7204707 666.519085,87.6114279 C668.226653,79.215187 669.565264,70.529945 671.725642,62.6995377 C672.670903,59.280199 673.184698,55.722444 674.448602,52.6651172 L674.448602,52.5479957 C657.554355,55.0699101 642.097819,60.2719289 628.295489,66.2420821 C619.478647,70.0553749 611.244207,75.7456533 602.852732,80.1749746 C597.028707,83.2475121 592.122499,86.9269517 587.112618,90.6824442 C586.150586,91.4019047 583.327001,93.4811912 582.142376,91.9799068 C581.570646,88.9788591 584.267688,87.118605 585.574282,85.4865096 C589.596214,80.4609336 594.648784,75.9494751 599.774536,72.0266662 C616.362336,59.3349571 635.927707,49.8192174 657.051233,41.567477 L670.425146,37.0803555 C673.541457,36.3319949 676.657768,35.5836343 679.774079,34.8367948 C681.963425,26.7386813 684.46989,18.3682984 688.295146,11.8140588 C689.629183,9.52790847 690.882416,5.76176852 693.974333,5.32066166 C694.527768,5.54882038 694.780854,5.60966271 695.038514,6.14811729 C695.620916,7.6919913 693.809675,12.1958444 693.382783,13.7032131 C691.757545,19.457376 690.133831,25.6876301 690.306112,32.4745915 C690.385392,32.5156601 690.463147,32.5536865 690.542427,32.593234 C698.935427,29.9389876 708.549642,29.7990502 717.997675,28.2247551 C720.915786,28.0680861 723.835422,27.909896 726.755058,27.753227 C731.220652,27.0398508 740.708324,27.0489771 745.216608,27.753227 L752.078895,27.753227 C754.68446,27.7927746 757.288501,27.8323221 759.891017,27.8718696 C766.003194,28.2658236 772.119945,28.6582566 778.233647,29.0506896 C787.266985,30.2720993 796.300322,31.4919879 805.33366,32.7118766 C805.70719,30.2553677 805.864226,27.4398891 806.278921,24.6837317 C806.666173,22.1192277 805.662977,18.6512152 806.63568,16.6555869 C807.776092,14.3968156 809.160441,16.8548455 809.476036,18.1903346 C810.575283,22.8371672 810.840566,28.431619 810.895452,33.5378111 C815.284815,34.0382393 819.384502,35.26117 823.321055,36.254421 C831.983912,38.4371394 840.171089,40.6411526 847.937472,43.5737527 C861.187892,48.5765129 874.439836,52.7715913 886.042148,59.5129209 C889.079179,61.2438851 892.117735,62.9763703 895.153241,64.7073345 C897.363931,66.1006237 899.2636,67.7920404 901.782263,68.9586919 C902.671112,65.9743759 902.171039,62.5048423 902.727523,59.0398718 C903.790179,52.4263111 903.29163,45.1967217 904.384779,38.2606967 C905.002247,34.3394088 903.968559,29.2514693 906.633584,27.3988205 C907.461449,27.5007314 907.668797,27.7425796 908.17192,28.1061125 C911.179983,41.8625623 910.603679,58.7904183 910.53812,75.3334466 C915.105864,80.000053 920.521292,83.7616297 924.620979,88.9104115 C935.865007,103.033436 943.405748,114.500694 948.644321,134.955883 C949.752716,139.280252 949.978358,144.041164 950.775732,148.768612 C951.759108,154.629249 950.736092,161.624596 950.656812,167.42439 L950.775732,167.42439 C951.326117,165.574784 951.878027,163.723656 952.431462,161.87557 C953.260852,157.940593 954.088718,154.004094 954.916583,150.069117 C956.429,142.809107 955.823728,135.830492 957.046469,128.10808 C957.668511,124.18375 956.96109,119.898929 957.639543,115.594334 C958.208224,111.966611 958.084731,107.204178 957.520624,103.550596 C956.939746,99.7890193 957.473361,95.9726844 956.929073,92.5700774 C955.945697,86.4432552 956.185062,80.1917063 955.152898,74.3888695 C954.67112,71.6829071 954.390591,68.9891131 956.218603,67.7768298 C958.781479,68.1053783 959.589525,72.3460884 960.360979,74.505991 C963.048874,82.0321866 963.841673,90.4375539 965.448616,99.3007596 C970.524056,127.286708 967.404696,162.487036 961.542555,187.023224" id="path22" fill="#000000" transform="translate(773.023984, 177.410331) scale(1, -1) translate(-773.023984, -177.410331) "></path>
        <g id="GPS" transform="translate(1.214584, 115.184472)" fill="#1B87B0">
            <path d="M206.56092,110.38626 L100.326031,110.38626 C95.1270202,95.7326887 89.9264874,81.0715244 84.727477,66.4179535 C85.5556649,65.1999865 86.3823304,63.9805008 87.2105183,62.7640524 C88.8257892,61.8407058 98.7670887,62.4086855 101.626164,62.4086855 L138.495749,62.4086855 C136.365906,57.196637 134.383736,51.7157854 129.160367,49.5608038 C125.183847,47.9206487 119.17644,48.2638664 113.561813,48.2638664 L85.67289,48.2638664 C79.3351212,48.2638664 62.4470912,46.7558349 61.3296465,51.3285266 C60.7465657,53.7189008 63.2554879,59.4154024 63.9299129,61.3486593 C66.773764,69.4932443 69.1441474,77.657572 72.2026575,85.5136112 C76.5673904,96.7319684 80.03086,108.222166 84.3742792,119.226392 C86.38842,124.333653 87.6550603,130.753037 91.936061,133.608122 C98.1961872,137.782925 117.010059,136.201997 127.622738,136.201997 L215.068114,136.201997 C220.306707,150.855568 225.546823,165.516732 230.785416,180.170303 C229.879585,181.427756 228.973755,182.685208 228.067924,183.944179 C227.296065,184.607834 219.304965,184.179571 217.551156,184.179571 L187.535434,184.179571 L69.4836435,184.179571 C67.5928175,183.865208 65.7019914,183.550845 63.8111654,183.236482 C59.6336882,182.079262 56.4640426,180.171822 53.5303697,177.811821 C45.6671519,171.489631 41.8276484,153.851889 37.6973658,143.274407 C26.8380565,115.479852 18.6901491,86.3488754 7.79886925,58.4024548 C1.99394196,43.5043792 -6.99585498,20.1731729 8.03636431,8.30330964 C12.0159289,5.15967903 16.7369044,2.90142843 22.4520099,1.46629272 C28.1823394,0.0281196752 35.619284,0.404747884 42.6588811,0.404747884 L74.920149,0.404747884 L133.413964,0.404747884 C144.332647,0.404747884 156.630628,-0.409255019 164.256351,2.88016716 C175.246587,7.62143034 177.900138,19.462439 182.336424,30.8174758 C191.315564,56.0014499 200.299271,81.1930174 209.278411,106.37851 C208.372581,107.713414 207.46675,109.049837 206.56092,110.38626" id="path26-path" transform="translate(115.285416, 92.315528) scale(1, -1) translate(-115.285416, -92.315528) "></path>
            <path d="M400.331718,0.341178435 C404.332867,0.341178435 408.390476,0.149985805 411.939931,0.811573 C424.512571,3.15899362 434.091216,8.39554732 437.643723,19.6561863 C440.756744,29.5253677 436.821214,40.3049903 433.972188,47.5718277 C432.351586,52.0845807 430.734036,56.6018859 429.114959,61.1161563 C427.602533,64.9730546 426.267799,69.0527299 424.93819,73.1639189 L424.575567,74.2857899 C424.212811,75.4081548 423.84927,76.5315704 423.481443,77.6521569 L423.112057,78.7716565 C418.968395,91.2589963 414.144742,103.232288 403.766724,109.289112 C395.871247,113.895944 381.639855,112.586426 369.180139,112.584909 C338.46652,112.625879 307.742218,112.665331 277.027073,112.704784 C268.499836,136.571997 259.969546,160.446797 251.442309,184.315528 C239.283213,184.236623 227.119539,184.157718 214.960444,184.080331 C212.036645,184.062122 201.930007,184.669083 200.272781,183.725259 C199.444168,182.508302 198.615555,181.292864 197.785416,180.07439 C219.103509,120.168883 240.429232,60.2451677 261.747326,0.341178435 L261.747326,0.341178435 Z M376.463856,53.6230338 C376.019139,49.7178918 369.950055,49.4684496 364.298282,49.6446982 L363.683671,49.6654587 C361.642423,49.739254 359.685407,49.8538077 358.103133,49.8538077 L358.103133,49.8538077 L299.352482,49.8538077 C297.419052,55.3892895 295.484095,60.9262888 293.549138,66.4602533 L293.549138,66.4602533 L348.626729,66.4602533 C355.083197,66.4617707 367.341482,67.5800958 371.487599,65.1659095 C372.932713,64.3237515 376.735482,56.0250809 376.463856,53.6230338 Z" id="Combined-Shape"></path>
            <path d="M501.975005,127.811197 C502.685453,128.792757 503.395902,129.774317 504.106351,130.755876 C509.032231,137.381025 518.376309,136.055085 529.667262,136.053568 L625.283606,136.053568 C630.450368,150.69504 635.618654,165.33803 640.785416,179.979502 C639.919461,181.234139 639.048932,182.490292 638.182978,183.746446 C636.387036,184.770484 629.111797,184.099929 626.347755,184.099929 L596.409809,184.099929 L486.355803,184.099929 C483.870757,183.825335 481.384186,183.550741 478.89914,183.27463 C474.145537,182.088262 470.468278,180.114523 467.184358,177.505122 C459.49901,171.398819 458.035424,158.67192 454.167595,148.772882 C449.356057,134.761004 444.541471,120.746091 439.729934,106.732696 C438.087974,100.835752 438.098646,91.9137235 440.204074,86.5963097 C443.216621,78.9865672 449.327091,74.1424867 457.007865,71.1704999 C464.549904,68.2531285 475.657908,68.8144532 486.119495,68.8144532 L537.005008,68.8144532 C543.67347,68.8159703 561.596294,70.6789615 561.85547,64.929176 C558.255965,59.9258006 557.598876,52.6027888 551.560061,49.9736652 C547.215042,48.0818492 540.816429,48.3245842 534.518438,48.3245842 L515.110684,48.3245842 L434.406142,48.3245842 C429.199741,33.6861461 423.991816,19.0431566 418.785416,4.40168428 C419.652895,3.14553061 420.520374,1.88937694 421.387854,0.634740357 C422.558722,0.100723337 425.007179,0.398073723 426.595779,0.398073723 L441.506056,0.398073723 L491.208504,0.398073723 L556.292321,0.398073723 C569.932633,0.398073723 581.813593,-0.415088558 589.782511,5.22698332 C597.284911,10.5383287 599.737941,19.9170027 603.392331,29.1318305 C606.467385,37.3332396 609.545488,45.5392 612.620543,53.7436433 C614.515581,58.8046683 616.409095,63.8702445 618.301084,68.9327865 C621.336499,76.6456915 625.652552,87.6886173 622.325944,98.1368423 C618.657833,109.651584 608.661239,114.462289 595.581968,116.742481 C589.18488,117.857545 581.773954,116.97763 574.872234,116.97763 L541.145736,116.97763 L511.442573,116.97763 C507.506138,116.97763 502.064954,116.595323 501.26608,119.685643 C500.887988,121.14357 501.674665,122.207053 501.857613,123.218954 C501.897252,124.749702 501.93689,126.28045 501.975005,127.811197" id="path26-path" transform="translate(529.785416, 92.315528) scale(1, -1) translate(-529.785416, -92.315528) "></path>
        </g>
        <rect id="Rectangle" stroke="#ADA8A8" stroke-width="0.5" fill="#D3FF4A" x="0.25" y="333.75" width="623.5" height="5.5"></rect>
    </g>
</svg>