<?xml version="1.0" encoding="UTF-8"?>
<svg width="478px" height="524px" viewBox="0 0 478 524" version="1.1" xmlns="http://www.w3.org/2000/svg" xmlns:xlink="http://www.w3.org/1999/xlink">
    <title>height_icon</title>
    <defs>
        <filter color-interpolation-filters="auto" id="filter-1">
            <feColorMatrix in="SourceGraphic" type="matrix" values="0 0 0 0 0.066667 0 0 0 0 0.286275 0 0 0 0 0.372549 0 0 0 1.000000 0"></feColorMatrix>
        </filter>
    </defs>
    <g id="Symbols" stroke="none" stroke-width="1" fill="none" fill-rule="evenodd">
        <g filter="url(#filter-1)" id="height_icon">
            <g transform="translate(239.000000, 262.000000) rotate(-90.000000) translate(-239.000000, -262.000000) translate(-23.000000, 23.000000)">
                <path d="M416.796745,328.0036 L417.096855,328.34537 C426.600309,337.87908 439.659818,341.91101 452.545455,339.92014 L452.545455,424.225 C452.545455,452.68751 430.508873,475.98284 402.622545,477.87572 L398.954545,478 L125.045455,478 C96.6813345,478 73.4638473,455.88772 71.5781618,427.9056 L71.4545455,424.225 L71.4328709,339.89624 C83.0347073,341.69591 94.7813582,338.61281 103.946356,331.02217 L107.160144,328.0275 L107.181818,424.225 C107.181818,433.29983 113.902118,440.79965 122.621478,441.98748 L125.045455,442.15 L398.954545,442.15 C407.998309,442.15 415.472455,435.40542 416.656218,426.65802 L416.818182,424.225 L416.796745,328.0036 Z M90.0601182,166.535917 C96.4021855,172.899531 96.9785855,182.857944 91.7897945,189.875223 L90.0601182,191.88593 L60.9745455,221.03676 L151.094685,221.03676 C159.727109,221.03437 166.727273,229.05999 166.727273,238.95937 C166.727273,248.0342 160.848707,255.53402 153.219505,256.72185 L151.098496,256.88676 L60.9745455,256.88676 L90.0601182,286.07583 C96.4021855,292.43801 96.9785855,302.39714 91.7897945,309.41418 L90.0601182,311.42417 C83.7180509,317.78874 73.7939673,318.36712 66.8007109,313.15931 L64.7971255,311.42417 L8.35351273,254.84809 C3.38670727,251.84625 0,245.86886 0,238.98327 C0,232.10007 3.38242,226.12029 8.34565273,223.11845 L64.7971255,166.535917 C71.7732327,159.535607 83.0840109,159.535607 90.0601182,166.535917 Z M433.938691,166.466129 C440.281473,160.102276 450.206509,159.523896 457.199527,164.730511 L459.202636,166.466129 L515.654109,223.04675 C520.617818,226.05098 524,232.02837 524,238.91396 C524,244.93915 521.4062,250.26885 517.430945,253.51686 L515.646964,254.77878 L459.202636,311.35486 L457.199527,313.09 C450.982982,317.71943 442.451309,317.77679 436.1776,313.26208 L433.938691,311.35486 L432.209491,309.34487 C427.598291,303.10697 427.541127,294.54599 432.040382,288.25073 L433.938691,286.00652 L463.025455,256.81506 L372.902218,256.81506 L370.780018,256.65254 C363.151055,255.46471 357.272727,247.9625 357.272727,238.88767 C357.272727,229.81523 363.155818,222.31541 370.784782,221.12997 L372.9046,220.96506 L463.025455,220.96506 L433.938691,191.81662 L432.209491,189.805435 C427.021891,182.788156 427.598291,172.829982 433.938691,166.466129 Z M398.954545,0 C427.319618,0 450.5352,22.111324 452.4216,50.093205 L452.545455,53.775 L452.540691,137.833929 C441.238964,136.202037 429.396564,139.230884 420.097945,146.919992 L416.801509,149.955531 L416.818182,53.775 C416.818182,44.70017 410.096691,37.200589 401.379236,36.013715 L398.954545,35.85 L125.045455,35.85 C116.001691,35.85 108.527784,42.593385 107.344973,51.342697 L107.181818,53.775 L107.175387,149.91275 L106.902193,149.635988 C97.2343927,139.934978 83.9988673,135.99578 71.4335855,137.818155 L71.4545455,53.775 C71.4545455,25.313446 93.4901745,2.016204 121.376264,0.124041 L125.045455,0 L398.954545,0 Z" id="Shape" fill="#212121" fill-rule="nonzero"></path>
            </g>
        </g>
    </g>
</svg>