<?xml version="1.0" encoding="UTF-8"?>
<svg width="551px" height="550px" viewBox="0 0 551 550" version="1.1" xmlns="http://www.w3.org/2000/svg" xmlns:xlink="http://www.w3.org/1999/xlink">
    <title>Helium Icon</title>
    <defs>
        <filter id="filter-1">
            <feColorMatrix in="SourceGraphic" type="matrix" values="0 0 0 0 0.066667 0 0 0 0 0.286275 0 0 0 0 0.372549 0 0 0 1.000000 0"></feColorMatrix>
        </filter>
    </defs>
    <g id="Symbols" stroke="none" stroke-width="1" fill="none" fill-rule="evenodd">
        <g filter="url(#filter-1)" id="Helium-Icon">
            <g>
                <path d="M543.75,6.75 L543.75,543.25 L6.75,543.25 L6.75,6.75 L543.75,6.75 Z" id="Rectangle" stroke="#FFFFFF" stroke-width="13.5"></path>
                <path d="M121.700928,409 L121.700928,311.276611 L203.274414,311.276611 L203.274414,409 L278.256104,409 L278.256104,167.410645 L203.274414,167.410645 L203.274414,251.950439 L121.700928,251.950439 L121.700928,167.410645 L47.0488281,167.410645 L47.0488281,409 L121.700928,409 Z M415.859863,412.955078 C442.556641,412.955078 463.046143,409.137329 477.328369,401.501831 C491.610596,393.866333 503.80542,381.259521 513.912842,363.681396 L513.912842,363.681396 L447.830078,357.583984 C443.655273,362.857422 439.755127,366.537842 436.129639,368.625244 C430.197021,371.921143 423.934814,373.569092 417.343018,373.569092 C406.906006,373.569092 398.446533,369.778809 391.9646,362.198242 C387.350342,356.924805 384.438965,348.904785 383.230469,338.138184 L383.230469,338.138184 L517.703125,338.138184 L517.703125,330.557617 C517.703125,307.486328 513.912842,288.754639 506.332275,274.362549 C498.751709,259.970459 487.710449,248.984131 473.208496,241.403564 C458.706543,233.822998 438.931152,230.032715 413.882324,230.032715 C383.010742,230.032715 358.813354,238.492188 341.290161,255.411133 C323.766968,272.330078 315.005371,294.467529 315.005371,321.823486 C315.005371,341.049561 319.372437,357.776245 328.106567,372.00354 C336.840698,386.230835 347.854492,396.612915 361.147949,403.14978 C374.441406,409.686646 392.678711,412.955078 415.859863,412.955078 Z M449.478027,306.003174 L383.395264,306.003174 C384.493896,295.566162 387.075684,287.710938 391.140625,282.4375 C397.512695,273.978027 406.0271,269.748291 416.683838,269.748291 C425.912354,269.748291 433.355591,272.549805 439.01355,278.152832 C444.671509,283.755859 448.159668,293.039307 449.478027,306.003174 L449.478027,306.003174 Z" id="He" fill="#FFFFFF" fill-rule="nonzero"></path>
                <path d="M88.5859375,102 L88.5859375,89.2558594 L61.3398438,89.2558594 C62.0559896,88.0188802 62.991862,86.749349 64.1474609,85.4472656 C65.3030599,84.1451823 68.0455729,81.5084635 72.375,77.5371094 C76.7044271,73.5657552 79.6992188,70.5221354 81.359375,68.40625 C83.8658854,65.2161458 85.6969401,62.164388 86.8525391,59.2509766 C88.008138,56.3375651 88.5859375,53.2695312 88.5859375,50.046875 C88.5859375,44.3828125 86.5677083,39.6464844 82.53125,35.8378906 C78.4947917,32.0292969 72.9446615,30.125 65.8808594,30.125 C59.4355469,30.125 54.0644531,31.7688802 49.7675781,35.0566406 C45.4707031,38.344401 42.9153646,43.7643229 42.1015625,51.3164062 L42.1015625,51.3164062 L55.7734375,52.6835938 C56.0338542,48.6796875 57.0104167,45.8151042 58.703125,44.0898438 C60.3958333,42.3645833 62.6744792,41.5019531 65.5390625,41.5019531 C68.4361979,41.5019531 70.7067057,42.3238932 72.3505859,43.9677734 C73.9944661,45.6116536 74.8164062,47.9635417 74.8164062,51.0234375 C74.8164062,53.7903646 73.8723958,56.5898438 71.984375,59.421875 C70.5846354,61.4726562 66.7923177,65.3789062 60.6074219,71.140625 C52.9251302,78.2695312 47.781901,83.9905599 45.1777344,88.3037109 C42.5735677,92.616862 41.0110677,97.1822917 40.4902344,102 L40.4902344,102 L88.5859375,102 Z" id="2" fill="#FFFFFF" fill-rule="nonzero"></path>
            </g>
        </g>
    </g>
</svg>