<?xml version="1.0" encoding="UTF-8"?>
<svg width="276px" height="275px" viewBox="0 0 276 275" version="1.1" xmlns="http://www.w3.org/2000/svg" xmlns:xlink="http://www.w3.org/1999/xlink">
    <title>Helium Icon</title>
    <g id="Symbols" stroke="none" stroke-width="1" fill="none" fill-rule="evenodd">
        <g id="Helium-Icon">
            <path d="M271.875,3.375 L271.875,271.625 L3.375,271.625 L3.375,3.375 L271.875,3.375 Z" id="Rectangle" stroke="#FFFFFF" stroke-width="6.75"></path>
            <path d="M60.8504639,204.5 L60.8504639,155.638306 L101.637207,155.638306 L101.637207,204.5 L139.128052,204.5 L139.128052,83.7053223 L101.637207,83.7053223 L101.637207,125.97522 L60.8504639,125.97522 L60.8504639,83.7053223 L23.5244141,83.7053223 L23.5244141,204.5 L60.8504639,204.5 Z M207.929932,206.477539 C221.27832,206.477539 231.523071,204.568665 238.664185,200.750916 C245.805298,196.933167 251.90271,190.629761 256.956421,181.840698 L256.956421,181.840698 L223.915039,178.791992 C221.827637,181.428711 219.877563,183.268921 218.064819,184.312622 C215.098511,185.960571 211.967407,186.784546 208.671509,186.784546 C203.453003,186.784546 199.223267,184.889404 195.9823,181.099121 C193.675171,178.462402 192.219482,174.452393 191.615234,169.069092 L191.615234,169.069092 L258.851562,169.069092 L258.851562,165.278809 C258.851562,153.743164 256.956421,144.377319 253.166138,137.181274 C249.375854,129.985229 243.855225,124.492065 236.604248,120.701782 C229.353271,116.911499 219.465576,115.016357 206.941162,115.016357 C191.505371,115.016357 179.406677,119.246094 170.645081,127.705566 C161.883484,136.165039 157.502686,147.233765 157.502686,160.911743 C157.502686,170.52478 159.686218,178.888123 164.053284,186.00177 C168.420349,193.115417 173.927246,198.306458 180.573975,201.57489 C187.220703,204.843323 196.339355,206.477539 207.929932,206.477539 Z M224.739014,153.001587 L191.697632,153.001587 C192.246948,147.783081 193.537842,143.855469 195.570312,141.21875 C198.756348,136.989014 203.01355,134.874146 208.341919,134.874146 C212.956177,134.874146 216.677795,136.274902 219.506775,139.076416 C222.335754,141.87793 224.079834,146.519653 224.739014,153.001587 L224.739014,153.001587 Z" id="He" fill="#FFFFFF" fill-rule="nonzero"></path>
            <path d="M44.2929688,51 L44.2929688,44.6279297 L30.6699219,44.6279297 C31.0279948,44.0094401 31.495931,43.3746745 32.0737305,42.7236328 C32.6515299,42.0725911 34.0227865,40.7542318 36.1875,38.7685547 C38.3522135,36.7828776 39.8496094,35.2610677 40.6796875,34.203125 C41.9329427,32.6080729 42.8484701,31.082194 43.4262695,29.6254883 C44.004069,28.1687826 44.2929688,26.6347656 44.2929688,25.0234375 C44.2929688,22.1914062 43.2838542,19.8232422 41.265625,17.9189453 C39.2473958,16.0146484 36.4723307,15.0625 32.9404297,15.0625 C29.7177734,15.0625 27.0322266,15.8844401 24.8837891,17.5283203 C22.7353516,19.1722005 21.4576823,21.8821615 21.0507812,25.6582031 L21.0507812,25.6582031 L27.8867188,26.3417969 C28.0169271,24.3398438 28.5052083,22.9075521 29.3515625,22.0449219 C30.1979167,21.1822917 31.3372396,20.7509766 32.7695312,20.7509766 C34.218099,20.7509766 35.3533529,21.1619466 36.175293,21.9838867 C36.9972331,22.8058268 37.4082031,23.9817708 37.4082031,25.5117188 C37.4082031,26.8951823 36.9361979,28.2949219 35.9921875,29.7109375 C35.2923177,30.7363281 33.3961589,32.6894531 30.3037109,35.5703125 C26.4625651,39.1347656 23.8909505,41.9952799 22.5888672,44.1518555 C21.2867839,46.308431 20.5055339,48.5911458 20.2451172,51 L20.2451172,51 L44.2929688,51 Z" id="2" fill="#FFFFFF" fill-rule="nonzero"></path>
        </g>
    </g>
</svg>