<?xml version="1.0" encoding="UTF-8"?>
<svg width="481px" height="478px" viewBox="0 0 481 478" version="1.1" xmlns="http://www.w3.org/2000/svg" xmlns:xlink="http://www.w3.org/1999/xlink">
    <title>intro/mircowave_icon</title>
    <defs>
        <filter id="filter-1">
            <feColorMatrix in="SourceGraphic" type="matrix" values="0 0 0 0 0.066667 0 0 0 0 0.286275 0 0 0 0 0.372549 0 0 0 1.000000 0"></feColorMatrix>
        </filter>
    </defs>
    <g id="Symbols" stroke="none" stroke-width="1" fill="none" fill-rule="evenodd">
        <g filter="url(#filter-1)" id="intro/mircowave_icon">
            <g transform="translate(0.282250, 0.000000)">
                <polygon id="Path" fill="#FFFFFF" points="371.010136 182.505017 297.654842 109.123326 309.267692 97.5054818 382.622986 170.887173"></polygon>
                <polygon id="Path" fill="#FFFFFF" points="254.74724 113.821306 141.529683 0.561378409 102.456652 39.6484705 215.675023 152.908398"></polygon>
                <polygon id="Path" fill="#FFFFFF" points="366.308959 225.435392 327.237557 264.52004 440.458371 377.781597 479.529774 338.696134"></polygon>
                <path d="M300.103982,275.719091 L377.51457,198.279832 L281.888145,102.61981 L204.478371,180.059069 L238.628688,214.221675 L229.151403,223.701556 C192.885068,195.693743 149.095385,190.816514 125.697828,214.221675 C113.17276,226.75288 108.759095,245.133338 111.642353,265.0749 L125.465701,265.0749 C122.720905,249.916868 124.814118,236.971759 131.617466,230.165148 C146.673122,215.104074 185.382896,229.406594 218.07448,262.113201 C250.768507,294.815734 265.067511,333.541067 250.01267,348.601326 C242.798824,355.816139 228.691222,357.742261 212.36009,354.209407 L212.36009,366.611063 C232.652036,369.773195 251.404615,365.427198 264.126787,352.704522 C287.080452,329.742597 282.829683,287.145464 256.227149,251.281613 L265.948778,241.554856 L300.103982,275.719091 Z" id="Path" fill="#FFFFFF"></path>
                <path d="M23.5425339,277.959716 L0,277.959716 C0,331.262148 20.7496833,381.37393 58.4291403,419.062057 C96.1037104,456.753443 146.198281,477.510593 199.479095,477.510593 L199.479095,453.962032 C154.406606,453.962032 109.33086,436.799659 75.0168326,402.47084 C40.6979186,368.140391 23.5417195,323.050868 23.5425339,277.959716 Z" id="Path" fill="#FFFFFF"></path>
                <path d="M199.478281,422.889044 L199.478281,399.429293 C168.372489,399.430923 137.260181,387.584942 113.578371,363.892981 C89.8941176,340.202649 78.0523982,309.079145 78.0523982,277.959716 L54.6051584,277.959716 C54.6051584,315.088909 68.7323077,352.222176 96.9898643,380.485827 C125.244977,408.753552 162.36,422.887415 199.478281,422.889044 Z" id="Path" fill="#FFFFFF"></path>
                <path d="M153.849502,323.606543 C141.268235,311.022378 134.980452,294.489825 134.980452,277.96216 L111.532398,277.960531 C111.529955,300.502033 120.108869,323.041906 137.262624,340.201834 C154.41638,357.360133 176.94733,365.942134 199.47991,365.940505 L199.47991,342.484013 C182.956561,342.483198 166.432398,336.190708 153.849502,323.606543 Z" id="Path" fill="#FFFFFF"></path>
                <path d="M179.798009,297.651143 C185.229774,303.087307 192.355656,305.807018 199.481538,305.807018 L199.481538,277.959716 L171.64181,277.959716 C171.640995,285.087348 174.360543,292.214165 179.798009,297.651143 Z" id="Path" fill="#FFFFFF"></path>
            </g>
        </g>
    </g>
</svg>