<?xml version="1.0" encoding="UTF-8"?>
<svg width="480px" height="512px" viewBox="0 0 480 512" version="1.1" xmlns="http://www.w3.org/2000/svg" xmlns:xlink="http://www.w3.org/1999/xlink">
    <title>MRI · CT scan free icon 3</title>
    <defs>
        <filter id="filter-1">
            <feColorMatrix in="SourceGraphic" type="matrix" values="0 0 0 0 0.066667 0 0 0 0 0.286275 0 0 0 0 0.372549 0 0 0 1.000000 0"></feColorMatrix>
        </filter>
    </defs>
    <g id="Symbols" stroke="none" stroke-width="1" fill="none" fill-rule="evenodd">
        <g filter="url(#filter-1)" id="MRI-·-CT-scan-free-icon-3">
            <g>
                <path d="M450.166,124.554 L450.166,53.187 C450.166,34.348 434.9,19.082 416.064,19.082 L333.736,19.082 C304.912,6.824 273.248,0 239.959,0 C206.833,0 175.248,6.742 146.505,19.082 L64.018,19.082 C45.178,19.082 29.916,34.348 29.916,53.187 L29.916,124.386 C10.998,158.57 0.279,197.95 0.279,239.683 C0.279,282.145 11.564,323.718 32.837,360.172 L32.837,441.285 C32.837,457.195 45.747,470.027 61.579,470.027 L181.661,470.027 L181.661,506.16 C181.661,509.406 184.34,512 187.508,512 L292.49,512 C295.658,512 298.256,509.406 298.256,506.16 L298.256,470.027 L418.42,470.027 C434.252,470.027 447.162,457.195 447.162,441.285 L447.162,360.172 C468.435,323.718 479.72,282.145 479.72,239.683 C479.72,197.95 469.002,158.734 450.166,124.554 Z M338.756,408.488 C336.217,409.977 333.615,411.363 331.006,412.734 C330.296,413.109 329.608,413.523 328.889,413.89 C326.619,415.047 324.287,416.109 321.967,417.18 C320.873,417.683 319.807,418.238 318.705,418.722 C316.924,419.504 315.096,420.191 313.287,420.921 C311.58,421.609 309.896,422.347 308.165,422.983 C307.392,423.273 306.587,423.507 305.806,423.788 C299.54,426.015 293.158,427.976 286.642,429.55 L286.642,417.09 C305.158,414.735 320.096,400.524 323.099,381.606 L326.267,361.551 L361.642,361.551 L361.752,361.551 L361.752,361.551 L361.908,361.551 L361.908,321.121 L361.99,321.121 L361.99,306.664 L361.908,306.664 L352.736,300.414 C357.443,291.726 361.182,282.308 363.775,272.484 C366.619,262.012 368.08,251.047 368.08,239.683 C368.08,228.668 366.638,218.019 364.002,207.82 C363.796,206.969 363.631,206.106 363.408,205.254 L432.466,205.254 C434.497,216.461 435.552,227.907 435.552,239.684 C435.552,246.422 435.228,253.001 434.575,259.493 C433.845,265.993 432.872,272.407 431.571,278.735 C430.681,283.364 429.544,287.911 428.325,292.457 C427.114,296.938 425.668,301.309 424.122,305.633 C423.297,307.926 422.364,310.176 421.458,312.43 C420.645,314.465 419.844,316.508 418.969,318.508 C402.485,355.961 374.575,387.218 339.653,407.93 C339.35,408.11 339.061,408.309 338.756,408.488 Z M266.346,417.492 L266.346,487.645 L213.65,487.645 L213.65,417.492 L266.346,417.492 Z M193.318,429.582 C134.876,415.281 86.744,374.695 62.146,321.039 C56.056,307.718 51.349,293.512 48.345,278.734 C45.829,266.07 44.447,253.078 44.447,239.683 C44.447,227.906 45.501,216.461 47.451,205.253 L102.15,205.253 L116.696,205.296 C113.622,216.246 111.997,227.765 111.997,239.682 C111.997,251.046 113.462,262.011 116.302,272.483 C118.9,282.308 122.634,291.725 127.345,300.413 L118.087,306.663 L118.087,321.12 L118.087,361.55 L153.731,361.55 L156.899,381.605 C159.903,400.523 174.841,414.734 193.353,417.089 L193.353,427.316 L193.318,429.582 Z M339.142,291.066 C339.123,291.093 339.107,291.124 339.088,291.152 L318.717,277.438 L311.408,272.484 L309.541,271.183 C310.596,268.75 311.572,266.317 312.385,263.797 C313.599,260.227 314.576,256.571 315.143,252.836 C315.225,252.434 315.307,252.023 315.385,251.621 C316.037,247.801 316.362,243.743 316.362,239.683 C316.362,218.656 307.756,199.492 293.956,185.769 C287.05,178.867 278.768,173.269 269.678,169.452 C267.404,168.476 265.049,167.585 262.612,166.854 C255.467,164.659 247.834,163.44 239.96,163.44 C232.166,163.44 224.616,164.658 217.467,166.854 C215.033,167.584 212.678,168.476 210.405,169.452 C201.23,173.269 193.031,178.788 186.131,185.769 C180.041,191.781 175.006,198.843 171.272,206.64 C170.135,208.831 169.159,211.186 168.346,213.456 C167.537,215.812 166.803,218.167 166.159,220.601 C164.533,226.691 163.721,233.105 163.721,239.683 C163.721,248.125 165.099,256.168 167.697,263.797 C168.51,266.317 169.487,268.751 170.541,271.183 L168.592,272.484 L161.365,277.438 L142.67,290.048 L140.896,291.227 C137.736,285.305 135.221,279.055 133.19,272.485 C130.026,262.091 128.319,251.134 128.319,239.684 C128.319,208.669 140.987,180.579 161.365,160.442 C163.803,158.004 166.319,155.731 168.998,153.453 C169.08,153.375 169.159,153.375 169.24,153.293 C173.381,149.965 177.767,146.797 182.314,144.039 C189.943,139.41 198.146,135.676 206.833,132.996 C208.048,132.59 209.349,132.18 210.65,131.859 C219.986,129.344 229.81,127.965 239.959,127.965 C250.189,127.965 260.013,129.344 269.431,131.859 C270.732,132.18 271.947,132.589 273.248,132.996 C281.935,135.676 290.134,139.41 297.767,144.039 C302.314,146.797 306.701,149.965 310.837,153.293 C310.919,153.375 311.001,153.453 311.083,153.453 C313.762,155.731 316.278,158.004 318.716,160.442 C339.095,180.656 351.681,208.747 351.681,239.684 C351.681,251.134 349.974,262.09 346.81,272.485 C346.322,274.111 345.752,275.731 345.267,277.356 C344.13,280.524 342.829,283.688 341.369,286.696 C340.654,288.203 339.935,289.637 339.142,291.066 Z M151.869,308.367 L163.963,300.172 L181.338,288.398 L204.885,272.484 L211.135,268.262 L268.865,268.262 L275.115,272.484 L298.662,288.398 L316.119,300.172 L327.424,307.886 L328.127,308.379 C327.154,309.593 326.267,310.726 325.291,311.863 L307.916,311.863 L172.166,311.863 L154.788,311.863 C153.745,310.738 152.862,309.613 151.901,308.414 C151.889,308.398 151.881,308.386 151.869,308.367 Z M256.896,199.813 C257.24,200.496 257.107,201.43 256.439,201.93 L240.041,213.7 L198.955,243.094 C197.9,243.82 196.439,243.094 196.361,241.793 C196.279,241.063 196.279,240.254 196.279,239.442 C196.361,220.848 208.13,203.876 225.752,198.274 C226.4,198.032 227.049,197.868 227.697,197.785 C228.838,197.383 229.971,197.137 231.111,196.977 C231.435,196.813 231.76,196.731 232.001,196.731 C233.22,196.489 234.517,196.329 235.735,196.243 C238.661,195.918 241.583,195.918 244.345,196.243 C245.642,196.329 246.943,196.571 248.239,196.813 C248.403,196.813 248.485,196.813 248.485,196.813 C251.164,197.383 253.68,198.11 256.114,199.086 C256.309,199.152 256.427,199.293 256.563,199.415 C256.697,199.531 256.806,199.652 256.896,199.813 Z M176.955,378.438 L174.275,361.551 L287.501,361.551 L305.72,361.579 L303.044,378.438 C301.583,387.293 295.005,394.274 286.642,396.384 C284.857,396.872 282.99,397.118 281.123,397.118 L198.877,397.118 C197.01,397.118 195.143,396.872 193.354,396.384 C184.99,394.274 178.416,387.293 176.955,378.438 Z M319.205,341.23 L319.365,340.035 C318.877,340.445 318.311,340.848 317.74,341.253 L162.178,341.253 C161.811,340.949 161.404,340.64 161.018,340.335 L160.792,340.015 L160.792,340.159 C160.741,340.116 160.686,340.077 160.635,340.034 L160.796,341.245 L160.796,341.252 L138.467,341.252 L138.467,321.119 L195.549,321.119 L284.533,321.119 L341.518,321.119 L341.53,321.119 L341.53,341.252 L321.764,341.252 L319.205,341.23 Z M429.822,193.078 L359.314,193.078 C358.256,190.398 357.119,187.718 355.822,185.124 C354.603,182.522 353.22,180.003 351.841,177.487 C350.704,175.538 349.567,173.589 348.353,171.644 C347.947,170.991 347.54,170.343 347.134,169.694 C345.669,167.499 344.13,165.308 342.505,163.198 C340.88,161.007 339.177,158.893 337.47,156.784 C337.228,156.62 337.146,156.46 336.986,156.296 C335.196,154.269 333.329,152.238 331.462,150.292 C329.596,148.421 327.728,146.636 325.861,144.929 C325.291,144.445 324.806,143.956 324.235,143.468 C322.45,141.925 320.583,140.382 318.716,138.921 C316.036,136.648 313.274,134.703 310.353,132.831 C308.892,131.941 307.431,130.964 305.97,130.073 C294.357,123.007 281.529,117.811 267.888,114.807 C265.778,114.318 263.665,113.913 261.556,113.592 C260.013,113.264 258.47,113.022 257.009,112.858 C251.407,112.128 245.724,111.725 239.959,111.725 C234.275,111.725 228.592,112.127 223.072,112.858 C221.611,113.022 220.068,113.264 218.526,113.592 C217.389,113.67 216.334,113.913 215.276,114.158 C214.062,114.318 212.925,114.56 211.784,114.888 C210.487,115.13 209.108,115.458 207.807,115.861 C204.397,116.755 200.987,117.811 197.659,118.947 C196.033,119.517 194.33,120.165 192.705,120.814 C187.834,122.68 183.123,124.954 178.576,127.474 C177.115,128.286 175.572,129.177 174.111,130.072 C172.65,130.962 171.189,131.939 169.729,132.83 C166.803,134.701 164.045,136.647 161.365,138.92 C143.342,152.885 129.213,171.561 120.767,193.078 L63.576,193.078 L50.142,193.038 C64.763,133.136 107.06,84.03 162.662,60.084 C162.744,60.002 162.744,60.002 162.826,60.002 C165.263,58.948 167.696,57.975 170.216,56.998 C170.946,56.674 171.677,56.432 172.486,56.185 C174.841,55.213 177.361,54.4 179.795,53.666 C180.607,53.342 181.42,53.1 182.232,52.857 C187.998,51.072 193.924,49.529 199.931,48.311 C202.771,47.662 205.615,47.174 208.537,46.768 C209.19,46.608 209.998,46.444 210.732,46.362 C213.49,45.956 216.334,45.549 219.174,45.308 C219.498,45.226 219.904,45.226 220.229,45.144 C222.748,44.898 225.263,44.655 227.862,44.578 C228.674,44.496 229.568,44.414 230.46,44.414 C233.628,44.253 236.792,44.172 239.96,44.172 C240.042,44.172 240.042,44.172 240.124,44.172 C243.37,44.172 246.538,44.254 249.702,44.414 C250.432,44.414 251.167,44.496 251.816,44.578 C254.496,44.656 257.175,44.898 259.855,45.226 C260.175,45.226 260.581,45.226 260.909,45.308 C263.749,45.55 266.511,45.956 269.355,46.362 C270.003,46.444 270.733,46.608 271.464,46.768 C274.386,47.174 277.23,47.662 280.07,48.311 C286.078,49.529 292.008,51.073 297.852,52.857 C298.665,53.099 299.477,53.423 300.286,53.666 C302.724,54.4 305.161,55.295 307.595,56.185 C308.325,56.431 309.137,56.755 309.868,56.998 C312.388,57.975 314.822,58.948 317.259,60.002 C317.337,60.002 317.337,60.084 317.419,60.084 L317.501,60.084 C320.911,61.546 324.322,63.166 327.567,64.791 C327.649,64.873 327.732,64.873 327.896,64.955 C331.224,66.581 334.47,68.365 337.638,70.233 C340.884,72.1 344.134,74.049 347.216,76.159 C353.146,80.053 358.911,84.277 364.431,88.827 C364.837,89.233 365.325,89.64 365.809,90.046 C368.489,92.155 371.091,94.511 373.606,96.944 C373.684,96.944 373.684,97.026 373.766,97.026 C376.446,99.546 379.044,102.144 381.564,104.823 C384.162,107.503 386.677,110.261 389.033,113.105 C393.822,118.784 398.368,124.796 402.509,130.964 C404.623,134.054 406.65,137.218 408.517,140.468 C408.517,140.546 408.517,140.546 408.599,140.546 C410.465,143.792 412.333,147.038 413.958,150.37 C415.743,153.698 417.368,157.108 418.829,160.596 C422.852,169.631 426.004,179.081 428.606,188.741 C428.982,190.207 429.482,191.586 429.822,193.078 Z" id="Shape" fill="#4B4B4B" fill-rule="nonzero"></path>
                <polygon id="Path" fill="#4B4B4B" fill-rule="nonzero" points="269.271 72.344 269.271 72.183 210.732 72.183 210.732 94.61 210.729 94.676 210.732 94.676 210.732 94.836 269.271 94.836 269.271 72.414"></polygon>
            </g>
        </g>
    </g>
</svg>