<?xml version="1.0" encoding="UTF-8"?>
<svg width="479px" height="478px" viewBox="0 0 479 478" version="1.1" xmlns="http://www.w3.org/2000/svg" xmlns:xlink="http://www.w3.org/1999/xlink">
    <title>message-phone-chat</title>
    <defs>
        <filter id="filter-1">
            <feColorMatrix in="SourceGraphic" type="matrix" values="0 0 0 0 0.066667 0 0 0 0 0.286275 0 0 0 0 0.372549 0 0 0 1.000000 0"></feColorMatrix>
        </filter>
    </defs>
    <g id="Symbols" stroke="none" stroke-width="1" fill="none" fill-rule="evenodd">
        <g filter="url(#filter-1)" id="message-phone-chat">
            <g>
                <path d="M116.130132,231.237369 C130.299407,256.759553 146.616486,281.269569 167.872348,303.63457 C189.124311,326.124145 215.568427,346.593279 249.851446,364.033698 C252.381256,365.295014 254.786329,365.295014 256.934134,364.411314 C260.224056,363.149998 263.513979,360.495006 266.803901,357.209355 C269.333711,354.682831 272.494999,350.638055 275.78882,346.215663 C288.944611,328.903712 305.269487,307.426304 328.291148,318.166955 C328.79789,318.416103 329.179895,318.673038 329.682739,318.922187 L406.473582,363.017638 C406.726953,363.142212 406.984222,363.399147 407.233694,363.523721 C417.356833,370.472638 421.527706,381.213288 421.652442,393.343722 C421.652442,405.727198 417.099564,419.621139 410.394983,431.373956 C401.538698,446.914615 388.507643,457.149182 373.449621,463.973524 C359.15561,470.544824 343.21274,474.083517 327.901347,476.357 C303.866203,479.891799 281.347385,477.618316 258.317928,470.544824 C235.799111,463.599801 213.151659,452.100025 188.356403,436.812408 L186.586705,435.671774 C175.200611,428.598282 162.929668,421.014815 150.912096,412.04935 C106.755412,378.815231 61.8464115,330.803472 32.6191149,277.987812 C8.07333106,233.639319 -5.33583145,185.752135 2.00412582,140.138433 C6.05416066,115.122333 16.8048787,92.3797163 35.5309301,77.3451413 C51.8519079,64.2064332 73.8639836,57.0005818 102.32727,59.5309996 C105.617192,59.7801485 108.52511,61.6799083 110.045334,64.4555821 L159.25774,147.593434 C166.472961,156.944301 167.353912,166.166701 163.432512,175.389101 C160.142589,182.972568 153.566642,189.921485 144.581724,196.488893 C141.927177,198.762376 138.765889,201.035859 135.475967,203.437809 C124.46798,211.398893 111.943666,220.621293 116.243174,231.490411 L116.130132,231.237369 L116.130132,231.237369 L116.130132,231.237369 Z M420.670143,70.0731097 C430.781587,70.0731097 438.975209,78.2599847 438.975209,88.3544054 C438.975209,98.4488262 430.777689,106.635701 420.670143,106.635701 C410.562597,106.635701 402.365077,98.4488262 402.365077,88.3544054 C402.365077,78.2599847 410.558699,70.0731097 420.670143,70.0731097 L420.670143,70.0731097 Z M295.080083,70.0069295 C305.214915,70.0069295 313.428027,78.2093763 313.428027,88.3271548 C313.428027,98.4449332 305.214915,106.643487 295.080083,106.643487 C284.945251,106.643487 276.743833,98.4449332 276.743833,88.3271548 C276.743833,78.2093763 284.949149,70.0069295 295.080083,70.0069295 L295.080083,70.0069295 Z M360.126215,70.0069295 C370.261047,70.0069295 378.474159,78.2093763 378.474159,88.3271548 C378.474159,98.4449332 370.261047,106.643487 360.126215,106.643487 C349.991383,106.643487 341.786067,98.4449332 341.786067,88.3271548 C341.786067,78.2093763 349.991383,70.0069295 360.126215,70.0069295 L360.126215,70.0069295 Z M284.61392,0 C270.900712,0 259.171593,4.81947277 249.41097,14.4584183 C239.650347,24.0973638 234.933752,35.815145 234.933752,49.6195476 L234.933752,136.697065 C234.933752,150.497575 239.755594,162.215356 249.41097,171.858194 C259.062449,181.49714 270.795466,186.31272 284.61392,186.31272 L325.433905,186.31272 C322.584458,197.26359 319.072349,207.669446 314.687085,217.417395 C310.407068,227.278238 303.063212,236.695286 292.971258,245.676323 C312.38336,240.638845 329.60088,233.082628 344.846007,223.112781 C359.985887,213.25583 373.145576,200.880141 384.001541,186.308827 L429.319833,186.308827 C443.03304,186.308827 454.766057,181.380351 464.52668,171.854302 C474.287303,162.211463 479,150.493682 479,136.693172 L479,49.6195476 C479,35.9241476 474.178159,24.2063664 464.52668,14.4584183 C454.867405,4.71047015 443.138286,0 429.315934,0 C385.221619,0 328.708236,0 284.61392,0 L284.61392,0 L284.61392,0 Z" id="Shape" fill="#000000" fill-rule="nonzero"></path>
            </g>
        </g>
    </g>
</svg>