<?xml version="1.0" encoding="UTF-8"?>
<svg width="345px" height="478px" viewBox="0 0 345 478" version="1.1" xmlns="http://www.w3.org/2000/svg" xmlns:xlink="http://www.w3.org/1999/xlink">
    <title>radio_icon</title>
    <defs>
        <filter id="filter-1">
            <feColorMatrix in="SourceGraphic" type="matrix" values="0 0 0 0 0.066667 0 0 0 0 0.286275 0 0 0 0 0.372549 0 0 0 1.000000 0"></feColorMatrix>
        </filter>
    </defs>
    <g id="Symbols" stroke="none" stroke-width="1" fill="none" fill-rule="evenodd">
        <g filter="url(#filter-1)" id="radio_icon">
            <g transform="translate(0.543270, -0.000993)">
                <g id="Group" transform="translate(0.000000, -0.000000)" fill="#FFFFFF">
                    <path d="M260.709755,163.309808 C258.33505,163.309808 255.931408,162.672974 253.762063,161.334874 C247.529396,157.489589 245.593414,149.317192 249.437374,143.083311 C256.733245,131.248649 260.590273,117.599662 260.590273,103.612649 C260.590273,82.0219074 251.300547,61.4321723 235.102333,47.1248743 C229.613628,42.2757815 229.093694,33.8942186 233.941117,28.4045564 C238.786673,22.9139603 247.166282,22.3947815 252.654987,27.2410729 C274.550067,46.5823511 287.106879,74.4181789 287.106879,103.612649 C287.106879,122.521589 281.886076,140.985119 272.00734,157.006828 C269.501018,161.072484 265.156727,163.309808 260.709755,163.309808 Z" id="Path"></path>
                    <path d="M83.5758022,163.305139 C79.1278975,163.305139 74.7826727,161.065947 72.2772842,157.001225 C62.4022824,140.979517 57.1824119,122.518788 57.1824119,103.613583 C57.1824119,74.4163113 69.7410917,46.5804835 91.6380378,27.2392054 C97.1267428,22.392914 105.505419,22.911159 110.351908,28.4026888 C115.197464,33.8951524 114.678464,42.2757815 109.188826,47.1230067 C92.9896781,61.4312385 83.6980845,82.0219074 83.6980845,103.613583 C83.6980845,117.597795 87.5532464,131.245848 94.8481835,143.08051 C98.690277,149.315325 96.7533615,157.484921 90.5206942,161.330205 C88.3522824,162.667371 85.9486403,163.305139 83.5758022,163.305139 Z" id="Path"></path>
                    <path d="M312.328786,187.230318 C309.954081,187.230318 307.550439,186.593484 305.381094,185.255384 C299.148426,181.410099 297.211511,173.237702 301.056405,167.003821 C311.991809,149.264901 317.772685,128.810563 317.772685,107.851053 C317.772685,75.4976226 303.853031,44.6475696 279.583246,23.2080994 C274.094541,18.3590067 273.574608,9.97744379 278.422031,4.48778154 C283.269453,-1.00468204 291.647196,-1.52199329 297.135901,3.3242981 C327.103484,29.7968147 344.290225,67.8957617 344.290225,107.851987 C344.290225,133.731556 337.145574,159.000437 323.627304,180.928272 C321.119115,184.99206 316.775757,187.230318 312.328786,187.230318 Z" id="Path"></path>
                    <path d="M31.9558381,187.22098 C27.5088669,187.22098 23.1645755,184.981788 20.6582536,180.918 C7.14371763,158.992967 0,133.726888 0,107.851053 C0,67.8929603 17.1895414,29.7930796 47.158991,3.320563 C52.6495629,-1.52572839 61.0254388,-1.00748336 65.8728615,4.48404644 C70.7184173,9.97651002 70.1994173,18.3571392 64.7097788,23.2043643 C40.4390612,44.6438345 26.5175396,75.4976226 26.5175396,107.851053 C26.5175396,128.807762 32.2956151,149.259298 43.2282194,166.994484 C47.0721799,173.229298 45.1343309,181.400762 38.9016637,185.246046 C36.7332518,186.583212 34.3296097,187.22098 31.9558381,187.22098 Z" id="Path"></path>
                </g>
                <path d="M324.684892,477.906719 C324.936998,477.878717 325.189104,477.843248 325.438409,477.799377 C325.573799,477.775109 325.707322,477.752707 325.841778,477.724705 C326.106956,477.670567 326.369333,477.607095 326.632644,477.535223 C326.740956,477.506287 326.851136,477.481085 326.960382,477.450283 C327.325469,477.342008 327.685887,477.220665 328.041636,477.081587 C328.098594,477.059185 328.154617,477.031183 328.211574,477.008781 C328.510367,476.886505 328.80449,476.755828 329.094879,476.61115 C329.210661,476.554212 329.322708,476.491673 329.435689,476.431002 C329.668187,476.307792 329.896016,476.178048 330.121044,476.039904 C330.238693,475.967098 330.355409,475.894292 330.472125,475.81682 C330.69902,475.668408 330.919379,475.510662 331.137871,475.347316 C331.23778,475.272643 331.337689,475.201704 331.434796,475.124231 C331.743859,474.878745 332.046386,474.622991 332.334908,474.347636 C336.417157,470.465594 337.600188,464.429247 335.284548,459.294572 L278.875368,334.17875 C278.874434,334.175949 278.872567,334.175016 278.871633,334.172216 L199.027802,157.078658 C218.636045,147.288145 232.140522,127.031334 232.140522,103.672808 C232.140522,70.7701902 205.364065,44.0009935 172.450229,44.0009935 C139.536393,44.0009935 112.759937,70.7683233 112.759937,103.672808 C112.759937,127.0332 126.264414,147.288145 145.872656,157.078658 L9.61497673,459.293638 C9.60190457,459.322574 9.59350104,459.352443 9.58042887,459.381379 C9.4730504,459.624065 9.38247899,459.873284 9.29097386,460.121571 C9.22841423,460.289584 9.15745106,460.456664 9.10142751,460.626544 C9.03886788,460.818826 8.99311531,461.013908 8.93989294,461.208991 C8.87639958,461.436742 8.80450269,461.665427 8.7540815,461.894112 C8.74100933,461.952917 8.73540698,462.011721 8.72326854,462.070526 C8.51784886,463.063672 8.43661471,464.060551 8.46089158,465.050896 C8.483301,466.078578 8.61869125,467.110927 8.88947174,468.130208 C8.898809,468.162877 8.90254391,468.197413 8.91188116,468.231016 C8.97724197,468.468102 9.06314475,468.70332 9.14251145,468.938539 C9.2022699,469.118687 9.25549228,469.300701 9.32272054,469.478049 C9.3899488,469.652596 9.47211668,469.824343 9.54774847,469.99609 C9.64952459,470.230375 9.7475658,470.466527 9.86241408,470.695212 C9.87735369,470.724148 9.88762468,470.75495 9.90256429,470.785753 C9.93431097,470.848291 9.97726236,470.901495 10.0099428,470.9631 C10.2368381,471.389667 10.4870767,471.802234 10.7606583,472.203599 C10.8372239,472.314674 10.9100545,472.42855 10.9903549,472.537759 C11.3115566,472.979261 11.6551677,473.405828 12.0314592,473.808127 C12.0828142,473.864131 12.1416389,473.912668 12.1948613,473.966806 C12.5207316,474.301899 12.8671439,474.620191 13.2322307,474.923549 C13.3526813,475.024357 13.4749994,475.121431 13.5991849,475.217572 C13.9409286,475.481726 14.2994793,475.729079 14.6711022,475.962431 C14.7663423,476.022169 14.8578474,476.089375 14.9558886,476.146313 C15.3732641,476.392732 15.8046454,476.62235 16.2565687,476.826767 C16.2985864,476.846368 16.3443389,476.858503 16.3863566,476.877171 C16.5180119,476.934109 16.6543359,476.978912 16.7878587,477.032116 C17.1781561,477.188929 17.5675198,477.328007 17.9624858,477.444683 C18.1174843,477.489486 18.2724828,477.529623 18.4293488,477.570693 C18.837387,477.675234 19.2472926,477.760174 19.6599994,477.823646 C19.7925885,477.845114 19.9251776,477.870316 20.0577666,477.887118 C20.6058637,477.95619 21.1520933,478.000993 21.6973892,478.000993 C21.7039253,478.000993 21.7095277,478.000993 21.7160638,478.000993 L21.7160638,478.000993 C22.2903052,478.000993 22.8654803,477.952456 23.4415891,477.87685 C23.6096598,477.854448 23.7749293,477.817112 23.9401987,477.788177 C24.3463695,477.719104 24.7506728,477.634164 25.1521749,477.525889 C25.3501248,477.471751 25.543406,477.410146 25.7385547,477.348542 C26.0924368,477.234666 26.4444515,477.104922 26.7927312,476.960244 C27.0037533,476.872504 27.2129078,476.78383 27.420195,476.684889 C27.5285072,476.631685 27.641488,476.596215 27.7488665,476.540211 L127.724761,425.360538 C134.244035,422.023606 136.822986,414.03457 133.484916,407.516585 C130.146846,401.000467 122.15602,398.424262 115.634878,401.76026 L49.3478129,435.694294 L84.6071685,357.490604 L166.590166,399.462211 C166.595768,399.465011 166.600437,399.468745 166.606039,399.471545 L317.147857,476.540211 C317.573636,476.757695 318.008752,476.941576 318.447603,477.110523 C318.554982,477.151593 318.66236,477.192662 318.769739,477.229999 C319.205789,477.384944 319.646507,477.523089 320.090961,477.630431 C320.131111,477.639765 320.169394,477.645365 320.20861,477.654699 C320.625052,477.749907 321.042427,477.821779 321.463538,477.875917 C321.574651,477.890851 321.686698,477.904852 321.797812,477.916987 C322.246,477.964591 322.696056,477.993526 323.144244,477.995393 C323.159184,477.995393 323.175057,478.000993 323.189063,478.000993 C323.265629,478.000993 323.343128,477.988859 323.419693,477.987926 C323.707281,477.984192 323.994868,477.971124 324.28339,477.947789 C324.417846,477.938455 324.551369,477.92072 324.684892,477.906719 Z M201.782293,387.691941 L260.414674,357.764093 L295.550778,435.695227 L201.782293,387.691941 Z M172.450229,70.5153699 C190.739117,70.5153699 205.616171,85.3892201 205.616171,103.671875 C205.616171,121.952663 190.738184,136.826513 172.450229,136.826513 C154.162275,136.826513 139.284287,121.952663 139.284287,103.671875 C139.283353,85.3892201 154.161341,70.5153699 172.450229,70.5153699 Z M172.144901,163.334355 C172.246677,163.334355 172.346586,163.342756 172.448362,163.342756 C172.550138,163.342756 172.650046,163.334355 172.751823,163.334355 L240.443212,313.473902 L160.442515,271.063594 C153.970861,267.632388 145.944553,270.097517 142.512177,276.564165 C139.081668,283.033613 141.543903,291.059052 148.014624,294.490258 L235.345069,340.786342 L172.657516,372.783555 L95.5149539,333.290146 L172.144901,163.334355 Z" id="Shape" fill="#FFFFFF"></path>
            </g>
        </g>
    </g>
</svg>