<?xml version="1.0" encoding="UTF-8"?>
<svg width="537px" height="535px" viewBox="0 0 537 535" version="1.1" xmlns="http://www.w3.org/2000/svg" xmlns:xlink="http://www.w3.org/1999/xlink">
    <title>ratchet_icon</title>
    <defs>
        <filter id="filter-1">
            <feColorMatrix in="SourceGraphic" type="matrix" values="0 0 0 0 0.066667 0 0 0 0 0.286275 0 0 0 0 0.372549 0 0 0 1.000000 0"></feColorMatrix>
        </filter>
        <filter id="filter-2">
            <feColorMatrix in="SourceGraphic" type="matrix" values="0 0 0 0 0.066667 0 0 0 0 0.286275 0 0 0 0 0.372549 0 0 0 1.000000 0"></feColorMatrix>
        </filter>
    </defs>
    <g id="Marketing" stroke="none" stroke-width="1" fill="none" fill-rule="evenodd">
        <g id="ratchet_icon" transform="translate(-706.000000, -248.000000)" filter="url(#filter-1)">
            <g transform="translate(706.027849, 248.000000)">
                <path d="M212.472151,-5.1159077e-13 L321.094,42.912 L341.930445,3.72595486 L417.81,92.75 L453.664085,67.6453839 L480.849,181.381 L524.141499,176.065404 L494.779,289.137 L536.07003,304.987004 L456.937,391.172 L486.122877,423.584922 L376.521,464.438 L387.035911,506.611741 L271.199,491.244 L260.536504,534.01065 L165.571,466.129 L135.669685,499.338993 L83.605,394.652 L42.4589878,410.447582 L43.594,293.572 L1.59872116e-13,288.219265 L55.815,185.662 L19.3355217,160.118799 L116.92,95.668 L96.3001972,56.888719 L212.472,43.769 L212.472151,-5.1159077e-13 Z M267.972151,52 C149.23093,52 52.9721509,148.258779 52.9721509,267 C52.9721509,385.741221 149.23093,482 267.972151,482 C386.713372,482 482.972151,385.741221 482.972151,267 C482.972151,148.258779 386.713372,52 267.972151,52 Z" id="Combined-Shape" fill="#11495F"></path>
                <g filter="url(#filter-2)" id="arrows">
                    <g transform="translate(52.972151, 52.000000)">
                        <path d="M205.991433,71.1776577 L205.991433,100.281802 L293,50.1189189 L205.991433,0 L205.991433,29.3679279 C153.812712,31.0385586 105.24467,54.954955 72,95.5336937 L104.408049,122 C129.682805,91.1812613 166.406057,72.8482883 205.991433,71.1776577 Z" id="Path" fill="#000000" fill-rule="nonzero"></path>
                        <path d="M401.632072,205.991433 C399.961441,153.812712 376.045045,105.24467 335.466306,72 L309,104.408049 C339.818739,129.638773 358.151712,166.406057 359.822342,205.991433 L330.718198,205.991433 L380.881081,293 L431,205.991433 L401.632072,205.991433 Z" id="Path" fill="#000000" fill-rule="nonzero"></path>
                        <path d="M225.008567,359.822342 L225.008567,330.718198 L138,380.837117 L225.008567,431 L225.008567,401.632072 C277.187288,399.961441 325.75533,376.045045 359,335.466306 L326.591951,309 C301.317195,339.818739 264.593943,358.151712 225.008567,359.822342 Z" id="Path" fill="#000000" fill-rule="nonzero"></path>
                        <path d="M71.1776577,225.008567 L100.281802,225.008567 L50.1628829,138 L0,225.008567 L29.3679279,225.008567 C31.0385586,277.187288 54.954955,325.75533 95.5336937,359 L122,326.591951 C91.1812613,301.317195 72.8482883,264.593943 71.1776577,225.008567 Z" id="Path" fill="#000000" fill-rule="nonzero"></path>
                    </g>
                </g>
            </g>
        </g>
    </g>
</svg>