<?xml version="1.0" encoding="UTF-8"?>
<svg width="1580px" height="1580px" viewBox="0 0 1580 1580" version="1.1" xmlns="http://www.w3.org/2000/svg" xmlns:xlink="http://www.w3.org/1999/xlink">
    <title>security</title>
    <defs>
        <filter id="filter-1">
            <feColorMatrix in="SourceGraphic" type="matrix" values="0 0 0 0 0.066667 0 0 0 0 0.286275 0 0 0 0 0.372549 0 0 0 1.000000 0"></feColorMatrix>
        </filter>
        <filter id="filter-2">
            <feColorMatrix in="SourceGraphic" type="matrix" values="0 0 0 0 0.066667 0 0 0 0 0.286275 0 0 0 0 0.372549 0 0 0 1.000000 0"></feColorMatrix>
        </filter>
    </defs>
    <g id="Symbols" stroke="none" stroke-width="1" fill="none" fill-rule="evenodd">
        <g filter="url(#filter-1)" id="security">
            <g>
                <path d="M1580,407.692308 C1580,182.900962 1397.18531,0 1172.5,0 C947.814687,0 765,182.900962 765,407.692308 C765,632.483654 947.814687,815.384615 1172.5,815.384615 C1207.72328,815.384615 1241.74953,810.415865 1274.375,801.95625 L1274.375,1274.03846 L917.8125,1274.03846 L917.8125,1325 L1299.84375,1325 C1313.9025,1325 1325.3125,1313.58462 1325.3125,1299.51923 L1325.3125,785.368269 C1474.4575,724.749519 1580,578.413462 1580,407.692308 Z M1172.5,764.423077 C975.88125,764.423077 815.9375,604.403846 815.9375,407.692308 C815.9375,210.980769 975.88125,50.9615385 1172.5,50.9615385 C1369.11875,50.9615385 1529.0625,210.980769 1529.0625,407.692308 C1529.0625,604.403846 1369.11875,764.423077 1172.5,764.423077 Z" id="Shape" fill="#000000" fill-rule="nonzero"></path>
                <path d="M840.529412,713.653846 L801.941471,713.653846 C669.367059,713.653846 544.739471,662.004327 451.007706,568.235096 C441.048706,558.272115 424.951294,558.272115 414.992294,568.235096 C382.084294,601.15625 345.177412,628.573558 305.647059,650.690865 L305.647059,305.961538 L713.176471,305.961538 L713.176471,255 L280.176471,255 C266.116706,255 254.705882,266.415385 254.705882,280.480769 L254.705882,675.814904 C195.079235,700.607692 130.562235,713.653846 64.0585294,713.653846 L25.4705882,713.653846 C11.4108235,713.653846 0,725.069231 0,739.134615 L0,1017.25721 C0,1202.96106 93.961,1372.58654 251.394706,1471.01875 L419.500588,1576.12692 C423.626824,1578.70048 428.313412,1580 433,1580 C437.686588,1580 442.373176,1578.70048 446.499412,1576.12692 L614.605294,1471.01875 C772.039,1372.58654 866,1202.96106 866,1017.25721 L866,739.134615 C866,725.069231 854.589176,713.653846 840.529412,713.653846 Z M815.058824,1017.25721 C815.058824,1185.2774 730.038,1338.74808 587.606471,1427.80337 L433,1524.4774 L278.393529,1427.80337 C135.962,1338.74808 50.9411765,1185.2774 50.9411765,1017.25721 L50.9411765,764.615385 L64.0585294,764.615385 C201.879882,764.615385 331.958176,713.985096 433,621.489904 C534.041824,713.985096 664.120118,764.615385 801.941471,764.615385 L815.058824,764.615385 L815.058824,1017.25721 Z" id="Shape" fill="#000000" fill-rule="nonzero"></path>
                <path d="M433.5,815 C278.8425,815 153,940.8425 153,1095.5 C153,1250.1575 278.8425,1376 433.5,1376 C588.1575,1376 714,1250.1575 714,1095.5 C714,940.8425 588.1575,815 433.5,815 Z M433.5,1325 C306.969,1325 204,1222.031 204,1095.5 C204,968.969 306.969,866 433.5,866 C560.031,866 663,968.969 663,1095.5 C663,1222.031 560.031,1325 433.5,1325 Z" id="Shape" fill="#000000" fill-rule="nonzero"></path>
                <path d="M428.055931,1201.43103 L350.869465,1105.038 L311,1136.89693 L413.098501,1264.43467 C417.973704,1270.50547 425.324797,1274 433.033233,1274 C433.926595,1274 434.819957,1273.94898 435.713319,1273.87246 C444.366167,1272.95419 451.946981,1267.69964 455.852248,1259.91983 L609,953.829256 L563.336445,931 L428.055931,1201.43103 Z" id="Path" fill="#000000" fill-rule="nonzero"></path>
                <g filter="url(#filter-2)" id="wifi">
                    <g transform="translate(919.000000, 211.000000)">
                        <path d="M253.476,298.88 C229.236,298.88 209.516,318.536 209.516,342.684 C209.516,366.84 229.236,386.504 253.476,386.504 C277.724,386.504 297.444,366.84 297.444,342.684 C297.444,318.536 277.72,298.88 253.476,298.88 Z" id="Path" fill="#000000" fill-rule="nonzero"></path>
                        <path d="M360.732,239.197 C332.112,210.593 294.016,194.833 253.476,194.833 C213.092,194.833 175.1,210.489 146.488,238.913 C134.932,250.413 134.912,269.149 146.44,280.669 C152.04,286.277 159.496,289.357 167.432,289.357 C175.332,289.357 182.76,286.293 188.352,280.733 C205.764,263.429 228.892,253.897 253.476,253.897 C278.152,253.897 301.344,263.489 318.768,280.897 C324.368,286.489 331.82,289.577 339.748,289.577 C347.656,289.577 355.08,286.513 360.676,280.953 C372.248,269.452 372.268,250.725 360.732,239.197 Z" id="Path" fill="#000000" fill-rule="nonzero"></path>
                        <path d="M498.512,101.872 C433.08,36.601 346.052,0.665 253.476,0.665 C161.024,0.665 74.084,36.517 8.672,101.633 C-2.884,113.133 -2.892,131.869 8.656,143.389 C14.252,148.969 21.696,152.037 29.616,152.037 C37.532,152.037 44.968,148.981 50.564,143.405 C104.784,89.437 176.844,59.709 253.476,59.709 C330.22,59.709 402.352,89.497 456.584,143.609 C462.18,149.193 469.636,152.273 477.552,152.273 C485.464,152.273 492.9,149.201 498.492,143.633 C510.052,132.124 510.064,113.381 498.512,101.872 Z" id="Path" fill="#000000" fill-rule="nonzero"></path>
                        <path d="M427.876,172.256 C381.3,125.788 319.364,100.2 253.476,100.2 C187.708,100.2 125.864,125.708 79.328,172.012 C73.724,177.584 70.64,184.996 70.628,192.888 C70.628,200.772 73.7,208.192 79.296,213.772 C84.892,219.356 92.34,222.436 100.26,222.436 C108.168,222.436 115.604,219.364 121.208,213.804 C156.56,178.632 203.536,159.256 253.476,159.256 C303.52,159.256 350.56,178.7 385.936,213.992 C391.54,219.584 398.984,222.664 406.908,222.664 C414.82,222.664 422.26,219.592 427.848,214.024 C433.444,208.452 436.536,201.04 436.540016,193.148 C436.548,185.256 433.468,177.844 427.876,172.256 Z" id="Path" fill="#000000" fill-rule="nonzero"></path>
                    </g>
                </g>
            </g>
        </g>
    </g>
</svg>