<svg id="eb1oggzhk2dh1" xmlns="http://www.w3.org/2000/svg" xmlns:xlink="http://www.w3.org/1999/xlink" viewBox="0 0 537 536" shape-rendering="geometricPrecision" text-rendering="geometricPrecision"><style><![CDATA[#eb1oggzhk2dh11 {animation: eb1oggzhk2dh11_s_do 10000ms linear infinite normal forwards}@keyframes eb1oggzhk2dh11_s_do { 0% {stroke-dashoffset: 423.130000} 20% {stroke-dashoffset: 423.130000} 30% {stroke-dashoffset: 846.260000} 100% {stroke-dashoffset: 846.260000} }#eb1oggzhk2dh12 {animation: eb1oggzhk2dh12_s_do 10000ms linear infinite normal forwards}@keyframes eb1oggzhk2dh12_s_do { 0% {stroke-dashoffset: 160.270000} 30% {stroke-dashoffset: 160.270000} 32% {stroke-dashoffset: 320.540000} 100% {stroke-dashoffset: 320.540000} }#eb1oggzhk2dh13 {animation: eb1oggzhk2dh13_s_do 10000ms linear infinite normal forwards}@keyframes eb1oggzhk2dh13_s_do { 0% {stroke-dashoffset: 186.590000} 20% {stroke-dashoffset: 373.180000} 100% {stroke-dashoffset: 373.180000} }#eb1oggzhk2dh14 {animation: eb1oggzhk2dh14_s_do 10000ms linear infinite normal forwards}@keyframes eb1oggzhk2dh14_s_do { 0% {stroke-dashoffset: 1255.010000} 31% {stroke-dashoffset: 1255.010000} 80% {stroke-dashoffset: 2510.020000} 100% {stroke-dashoffset: 2510.020000} }]]></style><g id="eb1oggzhk2dh2"><g id="eb1oggzhk2dh3" transform="matrix(1 0 0 1 -706 -247)"><g id="eb1oggzhk2dh4" transform="matrix(1 0 0 1 706.02800000000002 248)"><g id="eb1oggzhk2dh5"><g id="eb1oggzhk2dh6" transform="matrix(-1 0 0 1 536.07000000000005 0)"><path id="eb1oggzhk2dh7" d="M212.472151,-0L321.094000,42.912000L341.930445,3.725955L417.810000,92.750000L453.664085,67.645384L480.849000,181.381000L524.141499,176.065404L494.779000,289.137000L536.070030,304.987004L456.937000,391.172000L486.122877,423.584922L376.521000,464.438000L387.035911,506.611741L271.199000,491.244000L260.536504,534.010650L165.571000,466.129000L135.669685,499.338993L83.605000,394.652000L42.458988,410.447582L43.594000,293.572000L0,288.219265L55.815000,185.662000L19.335522,160.118799L116.920000,95.668000L96.300197,56.888719L212.472000,43.769000L212.472151,-0Z" fill="rgb(17,73,95)" fill-rule="evenodd" stroke="none" stroke-width="1"/></g></g><circle id="eb1oggzhk2dh8" display="none" r="199" transform="matrix(1 0 0 1 268.47199999999998 263.50000000000000)" fill="rgb(17,73,95)" fill-rule="evenodd" stroke="rgb(255,255,255)" stroke-width="17"/><line id="eb1oggzhk2dh9" display="none" x1="335.472151" y1="192.500000" x2="239.472151" y2="352.500000" fill="none" fill-rule="evenodd" stroke="rgb(255,255,255)" stroke-width="20" stroke-linecap="square"/><circle id="eb1oggzhk2dh10" display="none" r="66.500000" transform="matrix(1 0 0 1 393.97199999999998 224)" fill="rgb(17,73,95)" fill-rule="evenodd" stroke="rgb(255,255,255)" stroke-width="17"/><path id="eb1oggzhk2dh11" d="M326.972151,224.500000C326.972151,261.779221,357.192930,292,394.472151,292C431.751371,292,461.972151,261.779221,461.972151,224.500000C461.972151,187.220779,431.751371,157,394.472151,157C357.542963,157,327.540289,186.655928,326.980125,223.451787" transform="matrix(0.82903800000000 0.55919300000000 -0.55919300000000 0.82903800000000 192.97900000000001 -182.20500000000001)" fill="none" fill-rule="evenodd" stroke="rgb(255,255,255)" stroke-width="20" stroke-linecap="round" stroke-dashoffset="423.130000" stroke-dasharray="423.130000"/><path id="eb1oggzhk2dh12" d="M464.491875,179.165095C452.174102,166.000306,434.644458,157.772795,415.193176,157.772795C378.263988,157.772795,348.261314,187.428723,347.701150,224.224582" transform="matrix(0.82903800000000 0.55919300000000 -0.55919300000000 0.82903800000000 176.23200000000000 -194.43299999999999)" fill="none" fill-rule="evenodd" stroke="rgb(255,255,255)" stroke-width="20" stroke-linecap="round" stroke-dashoffset="160.270000" stroke-dasharray="160.270000"/><path id="eb1oggzhk2dh13" d="M335.472151,192.500000L239.472151,352.500000" fill="none" fill-rule="evenodd" stroke="rgb(255,255,255)" stroke-width="20" stroke-linecap="round" stroke-dashoffset="186.590000" stroke-dasharray="186.590000"/><path id="eb1oggzhk2dh14" d="M467.972151,263.518072C465.577989,155.140739,376.924172,64,267.972151,64C157.515201,64,67.972151,153.543050,67.972151,264C67.972151,374.456950,157.515201,464,267.972151,464C378.429101,464,467.972151,374.456950,467.972151,264" transform="matrix(0.95105700000000 -0.30901700000000 0.30901700000000 0.95105700000000 -68.46500000000000 95.72900000000000)" fill="none" fill-rule="evenodd" stroke="rgb(255,255,255)" stroke-width="20" stroke-linecap="round" stroke-dashoffset="1255.010000" stroke-dasharray="1255.010000"/></g></g></g></svg>