<?xml version="1.0" encoding="UTF-8"?>
<svg width="478px" height="372px" viewBox="0 0 478 372" version="1.1" xmlns="http://www.w3.org/2000/svg" xmlns:xlink="http://www.w3.org/1999/xlink">
    <title>thickness_icon</title>
    <defs>
        <filter color-interpolation-filters="auto" id="filter-1">
            <feColorMatrix in="SourceGraphic" type="matrix" values="0 0 0 0 0.066667 0 0 0 0 0.286275 0 0 0 0 0.372549 0 0 0 1.000000 0"></feColorMatrix>
        </filter>
    </defs>
    <g id="Symbols" stroke="none" stroke-width="1" fill="none" fill-rule="evenodd">
        <g filter="url(#filter-1)" id="thickness_icon">
            <g>
                <path d="M0,345.428571 C0,360.103971 11.86458,372 26.5,372 C41.13542,372 53,360.103971 53,345.428571 L53,26.5714286 C53,11.89656 41.13542,0 26.5,0 C11.86458,0 0,11.89656 0,26.5714286 L0,345.428571 Z" id="Path" fill="#212121" fill-rule="nonzero"></path>
                <path d="M425,345.428571 C425,360.103971 436.86405,372 451.5,372 C466.13595,372 478,360.103971 478,345.428571 L478,26.5714286 C478,11.89656 466.13595,0 451.5,0 C436.86405,0 425,11.89656 425,26.5714286 L425,345.428571 Z" id="Path" fill="#212121" fill-rule="nonzero"></path>
                <path d="M286.9672,233.542415 L284.71825,236.161836 L284.572042,236.359427 C276.846925,246.818419 277.697592,261.648452 287.139992,271.132838 C297.520783,281.559788 314.35335,281.559788 324.734142,271.132838 L387.21295,208.448311 C394.483492,203.666066 399,194.980056 399,185.474309 C399,175.965892 394.478175,167.277212 387.202317,162.497637 L324.56135,99.6462255 L321.956183,97.3875426 L321.759467,97.2406841 C311.346775,89.4809506 296.582392,90.3364679 287.139992,99.8203196 L286.9672,99.9933455 L284.71825,102.610897 L284.572042,102.809023 C276.846925,113.266946 277.697592,128.098048 287.139992,137.582433 L308.257792,158.796804 L223.459617,158.796804 L222.86415,158.842197 L170.742208,158.842197 L192.051408,137.435575 L194.523658,134.511757 L194.683158,134.290134 C201.384817,124.902141 201.29975,112.157497 194.427958,102.854949 L194.28175,102.657091 L191.854692,99.8331363 L188.757733,97.1907523 L188.537092,97.0310771 C179.191455,90.3001538 166.502964,90.3842636 157.241597,97.2866108 L157.044614,97.4334692 L154.439713,99.6921522 L91.6764633,162.665857 L89.9605092,163.880777 L89.7800083,164.027635 C83.7062483,168.996791 80,176.897776 80,185.519702 C80,195.025449 84.5167742,203.714129 91.7878475,208.493704 L154.439713,271.35446 L157.044614,273.61341 L157.241597,273.760269 C167.653491,281.519735 182.418938,280.662616 191.860008,271.17823 C201.302408,261.696515 202.153075,246.863811 194.427958,236.40749 L194.28175,236.207228 L192.0328,233.590478 L170.757361,212.245269 L255.535067,212.245269 L256.133192,212.199877 L308.241842,212.199877 L286.9672,233.542415 Z" id="Path" fill="#212121" fill-rule="nonzero"></path>
            </g>
        </g>
    </g>
</svg>