<?xml version="1.0" encoding="UTF-8"?>
<svg width="30px" height="38px" viewBox="0 0 30 38" version="1.1" xmlns="http://www.w3.org/2000/svg" xmlns:xlink="http://www.w3.org/1999/xlink">
    <title>52c4c053-dd30-4cb3-93df-62a72a1f2b99</title>
    <defs>
        <filter id="filter-1">
            <feColorMatrix in="SourceGraphic" type="matrix" values="0 0 0 0 0.000000 0 0 0 0 0.000000 0 0 0 0 0.000000 0 0 0 1.000000 0"></feColorMatrix>
        </filter>
    </defs>
    <g id="Symbols" stroke="none" stroke-width="1" fill="none" fill-rule="evenodd">
        <g filter="url(#filter-1)" id="52c4c053-dd30-4cb3-93df-62a72a1f2b99">
            <g transform="translate(15.500000, 21.500000) rotate(45.000000) translate(-15.500000, -21.500000) translate(-3.000000, 7.000000)">
                <path d="M34.1217918,14.0824306 C33.2426506,13.2045232 32.5254515,12.1784609 32.0031911,11.0514505 L31.5949154,10.1675932 C31.1147006,9.1313224 30.4550925,8.18795889 29.6464892,7.38097786 L26.704902,4.44145591 C25.5329862,3.27036294 23.6474817,3.15532574 22.4147893,4.17208309 C21.9757669,4.53417558 21.6425544,5.00784931 21.450229,5.54324075 C20.4077316,5.15382912 19.2065001,5.30459215 18.3313171,6.0269686 C17.9403044,6.34978771 17.6325643,6.76169851 17.4339685,7.22807128 C16.3049539,6.60429814 14.8777764,6.68432402 13.8774651,7.51387798 C13.5220735,7.80724069 13.2348912,8.17443936 13.035888,8.58994022 L10.0013484,5.55681657 C8.82943258,4.38643812 6.94392806,4.2706864 5.71123569,5.28815827 C5.02377349,5.85147438 4.60690552,6.67914895 4.56371896,7.56650652 C4.52053241,8.45386409 4.85505936,9.31805676 5.48457474,9.94537852 L14.82558,19.2826836 L11.8882829,19.2826836 C10.1629426,19.2826836 8.68785886,20.581675 8.52769465,22.2393539 C8.43817817,23.1587609 8.74124881,24.0732056 9.3622589,24.7574562 C9.983269,25.4417068 10.864498,25.8321648 11.7888953,25.8326587 L19.2250906,25.8326587 C20.6043362,25.8286867 21.927805,26.3764857 22.9002871,27.3538649 L24.040742,28.4928046 C24.4506495,28.9023985 25.1152135,28.9023985 25.525121,28.4928046 L36.2925888,17.7350402 C36.7024704,17.3254205 36.7024704,16.6613232 36.2925888,16.2517035 L34.1217918,14.0824306 Z M24.7850766,26.2677994 L24.3875261,25.8705281 C23.0215238,24.4977464 21.1623831,23.7286231 19.2250906,23.7348375 L11.7888953,23.7348375 C11.4558526,23.7347341 11.1384262,23.5937166 10.9152261,23.3467077 C10.692026,23.0996987 10.5839252,22.7697977 10.6176945,22.4387041 C10.674181,21.8456552 11.2311806,21.3819338 11.8847078,21.3819338 L15.0200651,21.3819338 C15.8369449,21.3834073 16.5741207,20.8925562 16.8873047,20.1386255 C17.2004888,19.3846948 17.0278839,18.5164497 16.4501027,17.939392 L6.96609365,8.46061269 C6.75588218,8.25098216 6.64444637,7.9621314 6.65943987,7.66574094 C6.67443337,7.36935049 6.81445078,7.09320213 7.04474571,6.90582422 C7.45373645,6.5685723 8.10011342,6.62716268 8.51482432,7.04086788 L13.6479441,12.1682402 L13.6479441,12.1682402 L14.3908486,12.9099086 C14.8035985,13.3046346 15.4563706,13.2973126 15.8601501,12.8934278 C16.2639297,12.4895431 16.2706282,11.8372226 15.8752276,11.4251427 L15.1330381,10.6841888 L15.1330381,10.6841888 C14.9237419,10.4740739 14.8131249,10.1853105 14.8285175,9.88924451 C14.8439101,9.5931785 14.9838767,9.3174248 15.2138352,9.13011489 C15.624256,8.79214847 16.2692029,8.85216787 16.6839138,9.26587308 L18.1039411,10.6863324 L18.1039411,10.6863324 L18.8468456,11.4280008 C19.2595955,11.8227268 19.9123676,11.8154048 20.3161472,11.4115201 C20.7199267,11.0076353 20.7266252,10.3553148 20.3312246,9.94323497 L19.5890351,9.20156657 C19.3789694,8.99157746 19.2676576,8.70255106 19.282645,8.40600966 C19.2976323,8.10946826 19.4375184,7.83311972 19.6676872,7.64534906 C20.078108,7.30738264 20.7237699,7.36740204 21.1377658,7.78039273 L22.1874134,8.82930334 L22.9296029,9.57097173 C23.1940488,9.83946434 23.5822704,9.94562025 23.9466716,9.84908057 C24.3110728,9.75254089 24.5956786,9.46813491 24.6922861,9.10398956 C24.7888936,8.7398442 24.6826631,8.35189518 24.4139818,8.08763494 L23.6717923,7.34596654 C23.4619689,7.13599739 23.3508119,6.84713484 23.3657968,6.5507788 C23.3807817,6.25442276 23.52051,5.97822811 23.7504444,5.79046355 C24.1608652,5.45178261 24.8058121,5.51251653 25.220523,5.92550722 L28.1628253,8.86788724 C28.7968294,9.50098466 29.3140888,10.2408937 29.6908204,11.053594 L30.0990961,11.9345932 C30.7246364,13.2855029 31.584203,14.5152885 32.6381278,15.5671964 L34.0681654,16.9962299 L24.7850766,26.2677994 Z" id="Shape" fill="#495875" fill-rule="nonzero"></path>
                <path d="M3.61233348,3.61207505 C5.66530283,1.56428978 8.98826797,1.56428978 11.0412373,3.61207505 C11.305831,3.88091395 11.6942695,3.98720679 12.0588743,3.89054259 C12.4234792,3.7938784 12.708244,3.50910559 12.8049055,3.14449055 C12.901567,2.77987551 12.7952771,2.3914261 12.5264458,2.12682502 C9.65037653,-0.719413938 5.01530448,-0.707379682 2.15405275,2.15375535 C-0.707198974,5.01489038 -0.71955175,9.6500914 2.12640963,12.526437 C2.39100331,12.7952759 2.77944184,12.9015687 3.14404666,12.8049045 C3.50865149,12.7082403 3.79341633,12.4234675 3.89007781,12.0588525 C3.9867393,11.6942374 3.88044944,11.305788 3.61161807,11.0411869 C1.56408784,8.9879629 1.56440785,5.66490468 3.61233348,3.61207505 L3.61233348,3.61207505 Z" id="Path" fill="#2686EF" fill-rule="nonzero"></path>
            </g>
        </g>
    </g>
</svg>