<?xml version="1.0" encoding="UTF-8"?>
<svg width="256px" height="228px" viewBox="0 0 256 228" version="1.1" xmlns="http://www.w3.org/2000/svg" xmlns:xlink="http://www.w3.org/1999/xlink">
    <title>Mask</title>
    <defs>
        <path d="M253.118722,451.943289 C261.322275,466.190617 251.024945,484 234.640061,484 L21.3574547,484 C4.9410149,484 -5.30875997,466.163008 2.87879326,451.943289 L109.52143,266.680822 C117.728983,252.426815 138.285866,252.452643 146.478752,266.680822 L253.118722,451.943289 Z M128.000091,413.640626 C116.708983,413.640626 107.555652,422.811837 107.555652,434.125 C107.555652,445.438164 116.708983,454.609375 128.000091,454.609375 C139.291199,454.609375 148.44453,445.438164 148.44453,434.125 C148.44453,422.811837 139.291199,413.640626 128.000091,413.640626 Z M108.589874,340.009986 L111.886762,400.572485 C112.040984,403.406454 114.37965,405.625001 117.212094,405.625001 L138.788088,405.625001 C141.620532,405.625001 143.959198,403.406454 144.11342,400.572485 L147.410308,340.009986 C147.576974,336.948908 145.144531,334.375001 142.084976,334.375001 L113.914762,334.375001 C110.855207,334.375001 108.423208,336.948908 108.589874,340.009986 L108.589874,340.009986 Z" id="path-1"></path>
    </defs>
    <g id="Symbols" stroke="none" stroke-width="1" fill="none" fill-rule="evenodd">
        <g id="Solid/exclamation-triangle" transform="translate(0.000000, -256.000000)">
            <mask id="mask-2" fill="white">
                <use xlink:href="#path-1"></use>
            </mask>
            <use id="Mask" fill="#FFFFFF" xlink:href="#path-1"></use>
        </g>
    </g>
</svg>