<?xml version="1.0" encoding="UTF-8"?>
<svg width="439px" height="478px" viewBox="0 0 439 478" version="1.1" xmlns="http://www.w3.org/2000/svg" xmlns:xlink="http://www.w3.org/1999/xlink">
    <title>weight_icon</title>
    <defs>
        <filter color-interpolation-filters="auto" id="filter-1">
            <feColorMatrix in="SourceGraphic" type="matrix" values="0 0 0 0 0.066667 0 0 0 0 0.286275 0 0 0 0 0.372549 0 0 0 1.000000 0"></feColorMatrix>
        </filter>
    </defs>
    <g id="Symbols" stroke="none" stroke-width="1" fill="none" fill-rule="evenodd">
        <g filter="url(#filter-1)" id="weight_icon">
            <g>
                <path d="M438.624732,449.865096 L387.827257,166.731913 C385.782846,155.333498 375.856041,147.036204 364.263064,147.036204 L279.781481,147.036204 C295.621279,131.449283 305.465095,109.795642 305.465095,85.8811333 C305.465095,38.5256539 266.902169,0 219.500875,0 C172.099582,0 133.53506,38.5256539 133.53506,85.8811333 C133.53506,109.795642 143.378876,131.449283 159.218674,147.036204 L74.7370909,147.036204 C63.1441143,147.036204 53.2189048,155.333498 51.1728976,166.731913 L0.375423324,449.865096 C-0.874205077,456.835843 1.02976259,464.001107 5.5798144,469.431657 C10.1282703,474.862207 16.8520052,478 23.9396166,478 L415.060538,478 C422.14815,478 428.871885,474.862207 433.420341,469.431657 C437.968796,464.001107 439.87436,456.835843 438.624732,449.865096 Z M181.212,239.384 L181.212,284.096 C188.756,275.632 199.244,270.664 211.572,270.664 C237.148,270.664 255.18,291.272 255.18,320.344 C255.18,349.6 237.148,370.208 211.572,370.208 C199.244,370.208 188.756,365.24 181.212,356.776 L181.212,356.776 L181.212,368 L145.7,368 L145.7,239.384 L181.212,239.384 Z M306.332,270.664 C321.052,270.664 335.22,276 346.076,283.176 L346.076,283.176 L334.116,304.888 C326.204,299.736 315.348,294.768 306.332,294.768 C301.364,294.768 298.052,297.344 298.052,300.104 C298.052,303.232 302.284,303.784 311.852,305.992 C329.148,309.856 349.02,315.56 349.02,338.008 C349.02,357.696 333.38,370.208 307.62,370.208 C291.06,370.208 273.948,364.872 262.356,355.856 L262.356,355.856 L275.604,334.328 C284.804,340.768 298.42,345.552 308.54,345.552 C315.164,345.552 317.556,343.896 317.556,340.768 C317.556,337.456 312.036,335.616 303.204,333.776 C302.3392,333.592 301.46934,333.40662 300.597088,333.217652 L300.597088,333.217652 L299.549408,332.989027 C283.297868,329.414262 266.588,324.29264 266.588,303.416 C266.588,285.016 281.492,270.664 306.332,270.664 Z M126.196,239.384 L126.196,368 L90.684,368 L90.684,239.384 L126.196,239.384 Z M200.348,300.104 C189.124,300.104 181.212,308.568 181.212,320.344 C181.212,332.304 189.124,340.768 200.348,340.768 C212.676,340.768 221.324,332.304 221.324,320.344 C221.324,308.568 212.676,300.104 200.348,300.104 Z M219.500875,47.832207 C240.501974,47.832207 257.586613,64.9003329 257.586613,85.8811333 C257.586613,106.861934 240.501974,123.931654 219.500875,123.931654 C198.499777,123.931654 181.413542,106.861934 181.413542,85.8811333 C181.413542,64.9003329 198.499777,47.832207 219.500875,47.832207 Z" id="Shape" fill="#000000" fill-rule="nonzero"></path>
            </g>
        </g>
    </g>
</svg>